<mxfile host="65bd71144e">
    <diagram id="_z45hhxpEU_sd-pvmAjb" name="ページ1">
        <mxGraphModel dx="3429" dy="1560" grid="1" gridSize="10" guides="1" tooltips="1" connect="1" arrows="1" fold="1" page="1" pageScale="1" pageWidth="1169" pageHeight="827" math="0" shadow="0">
            <root>
                <mxCell id="0"/>
                <mxCell id="1" parent="0"/>
                <mxCell id="10" value="" style="swimlane;childLayout=stackLayout;resizeParent=1;resizeParentMax=0;startSize=20;html=1;strokeColor=#808080;movable=0;resizable=0;rotatable=0;deletable=0;editable=0;locked=1;connectable=0;container=0;" parent="1" vertex="1">
                    <mxGeometry x="-1140" y="80" width="720" height="2800" as="geometry"/>
                </mxCell>
                <mxCell id="11" value="User" style="swimlane;startSize=20;html=1;strokeColor=#808080;movable=0;resizable=0;rotatable=0;deletable=0;editable=0;locked=1;connectable=0;container=0;" parent="10" vertex="1">
                    <mxGeometry y="20" width="360" height="2780" as="geometry"/>
                </mxCell>
                <mxCell id="255" value="" style="edgeStyle=none;html=1;movable=0;resizable=0;rotatable=0;deletable=0;editable=0;locked=1;connectable=0;" parent="11" source="256" target="257" edge="1">
                    <mxGeometry relative="1" as="geometry"/>
                </mxCell>
                <mxCell id="358" style="edgeStyle=none;html=1;entryX=0.5;entryY=0;entryDx=0;entryDy=0;movable=0;resizable=0;rotatable=0;deletable=0;editable=0;locked=1;connectable=0;" parent="11" source="256" target="271" edge="1">
                    <mxGeometry relative="1" as="geometry"/>
                </mxCell>
                <mxCell id="256" value="&lt;span style=&quot;color: rgb(0, 0, 0);&quot;&gt;Start the Raspberry Pi&lt;/span&gt;" style="rounded=1;whiteSpace=wrap;html=1;movable=0;resizable=0;rotatable=0;deletable=0;editable=0;locked=1;connectable=0;fillColor=#dae8fc;strokeColor=#6c8ebf;" parent="11" vertex="1">
                    <mxGeometry x="10" y="1070" width="140" height="60" as="geometry"/>
                </mxCell>
                <mxCell id="257" value="G" style="ellipse;html=1;fontStyle=1;movable=0;resizable=0;rotatable=0;deletable=0;editable=0;locked=1;connectable=0;" parent="11" vertex="1">
                    <mxGeometry x="229.99999999999955" y="1085" width="30" height="30" as="geometry"/>
                </mxCell>
                <mxCell id="270" value="" style="edgeStyle=none;html=1;movable=0;resizable=0;rotatable=0;deletable=0;editable=0;locked=1;connectable=0;" parent="11" source="271" target="272" edge="1">
                    <mxGeometry relative="1" as="geometry"/>
                </mxCell>
                <mxCell id="359" style="edgeStyle=none;html=1;entryX=0.5;entryY=0;entryDx=0;entryDy=0;movable=0;resizable=0;rotatable=0;deletable=0;editable=0;locked=1;connectable=0;" parent="11" source="271" target="353" edge="1">
                    <mxGeometry relative="1" as="geometry"/>
                </mxCell>
                <mxCell id="271" value="&lt;span style=&quot;color: rgb(0, 0, 0);&quot;&gt;Start the Copy Robot&lt;/span&gt;" style="rounded=1;whiteSpace=wrap;html=1;movable=0;resizable=0;rotatable=0;deletable=0;editable=0;locked=1;connectable=0;fillColor=#dae8fc;strokeColor=#6c8ebf;" parent="11" vertex="1">
                    <mxGeometry x="10" y="1430" width="140" height="60" as="geometry"/>
                </mxCell>
                <mxCell id="272" value="H" style="ellipse;html=1;fontStyle=1;movable=0;resizable=0;rotatable=0;deletable=0;editable=0;locked=1;connectable=0;" parent="11" vertex="1">
                    <mxGeometry x="229.99999999999955" y="1445" width="30" height="30" as="geometry"/>
                </mxCell>
                <mxCell id="352" value="" style="edgeStyle=none;html=1;movable=0;resizable=0;rotatable=0;deletable=0;editable=0;locked=1;connectable=0;" parent="11" source="353" target="354" edge="1">
                    <mxGeometry relative="1" as="geometry"/>
                </mxCell>
                <mxCell id="370" value="" style="edgeStyle=none;html=1;movable=0;resizable=0;rotatable=0;deletable=0;editable=0;locked=1;connectable=0;" parent="11" source="353" target="363" edge="1">
                    <mxGeometry relative="1" as="geometry"/>
                </mxCell>
                <mxCell id="353" value="Stop the Copy Robot" style="rounded=1;whiteSpace=wrap;html=1;movable=0;resizable=0;rotatable=0;deletable=0;editable=0;locked=1;connectable=0;fillColor=#dae8fc;strokeColor=#6c8ebf;" parent="11" vertex="1">
                    <mxGeometry x="10" y="2190" width="140" height="60" as="geometry"/>
                </mxCell>
                <mxCell id="354" value="I" style="ellipse;html=1;fontStyle=1;movable=0;resizable=0;rotatable=0;deletable=0;editable=0;locked=1;connectable=0;" parent="11" vertex="1">
                    <mxGeometry x="229.99999999999955" y="2205" width="30" height="30" as="geometry"/>
                </mxCell>
                <mxCell id="362" value="" style="edgeStyle=none;html=1;movable=0;resizable=0;rotatable=0;deletable=0;editable=0;locked=1;connectable=0;" parent="11" source="363" target="364" edge="1">
                    <mxGeometry relative="1" as="geometry"/>
                </mxCell>
                <mxCell id="377" style="edgeStyle=none;html=1;movable=0;resizable=0;rotatable=0;deletable=0;editable=0;locked=1;connectable=0;" parent="11" source="363" target="372" edge="1">
                    <mxGeometry relative="1" as="geometry"/>
                </mxCell>
                <mxCell id="363" value="Stop the Raspberry Pi" style="rounded=1;whiteSpace=wrap;html=1;movable=0;resizable=0;rotatable=0;deletable=0;editable=0;locked=1;connectable=0;fillColor=#dae8fc;strokeColor=#6c8ebf;" parent="11" vertex="1">
                    <mxGeometry x="10" y="2270" width="140" height="60" as="geometry"/>
                </mxCell>
                <mxCell id="364" value="J" style="ellipse;html=1;fontStyle=1;movable=0;resizable=0;rotatable=0;deletable=0;editable=0;locked=1;connectable=0;" parent="11" vertex="1">
                    <mxGeometry x="229.99999999999955" y="2285" width="30" height="30" as="geometry"/>
                </mxCell>
                <mxCell id="371" value="" style="edgeStyle=none;html=1;movable=0;resizable=0;rotatable=0;deletable=0;editable=0;locked=1;connectable=0;" parent="11" source="372" target="373" edge="1">
                    <mxGeometry relative="1" as="geometry"/>
                </mxCell>
                <mxCell id="379" style="edgeStyle=orthogonalEdgeStyle;html=1;entryX=0.5;entryY=0;entryDx=0;entryDy=0;movable=0;resizable=0;rotatable=0;deletable=0;editable=0;locked=1;connectable=0;" parent="11" source="372" target="378" edge="1">
                    <mxGeometry relative="1" as="geometry"/>
                </mxCell>
                <mxCell id="372" value="Push &quot;Save CSV&quot;" style="rounded=1;whiteSpace=wrap;html=1;movable=0;resizable=0;rotatable=0;deletable=0;editable=0;locked=1;connectable=0;fillColor=#dae8fc;strokeColor=#6c8ebf;" parent="11" vertex="1">
                    <mxGeometry x="10" y="2431" width="140" height="60" as="geometry"/>
                </mxCell>
                <mxCell id="373" value="K" style="ellipse;html=1;fontStyle=1;movable=0;resizable=0;rotatable=0;deletable=0;editable=0;locked=1;connectable=0;" parent="11" vertex="1">
                    <mxGeometry x="229.99999999999955" y="2446" width="30" height="30" as="geometry"/>
                </mxCell>
                <mxCell id="381" style="edgeStyle=orthogonalEdgeStyle;html=1;entryX=0.75;entryY=0;entryDx=0;entryDy=0;movable=0;resizable=0;rotatable=0;deletable=0;editable=0;locked=1;connectable=0;" parent="11" source="378" target="256" edge="1">
                    <mxGeometry relative="1" as="geometry">
                        <Array as="points">
                            <mxPoint x="340" y="2570"/>
                            <mxPoint x="340" y="1050"/>
                            <mxPoint x="115" y="1050"/>
                        </Array>
                    </mxGeometry>
                </mxCell>
                <mxCell id="386" style="edgeStyle=orthogonalEdgeStyle;html=1;entryX=0.5;entryY=0;entryDx=0;entryDy=0;movable=0;resizable=0;rotatable=0;deletable=0;editable=0;locked=1;connectable=0;" parent="11" source="378" target="384" edge="1">
                    <mxGeometry relative="1" as="geometry"/>
                </mxCell>
                <mxCell id="378" value="Do you want to end the experiment?" style="rhombus;whiteSpace=wrap;html=1;movable=0;resizable=0;rotatable=0;deletable=0;editable=0;locked=1;connectable=0;fillColor=#dae8fc;strokeColor=#6c8ebf;" parent="11" vertex="1">
                    <mxGeometry x="59.999999999999545" y="2530" width="170" height="80" as="geometry"/>
                </mxCell>
                <mxCell id="383" value="" style="edgeStyle=none;html=1;movable=0;resizable=0;rotatable=0;deletable=0;editable=0;locked=1;connectable=0;" parent="11" source="384" target="385" edge="1">
                    <mxGeometry relative="1" as="geometry"/>
                </mxCell>
                <mxCell id="395" value="" style="edgeStyle=none;html=1;movable=0;resizable=0;rotatable=0;deletable=0;editable=0;locked=1;connectable=0;" parent="11" source="384" target="394" edge="1">
                    <mxGeometry relative="1" as="geometry"/>
                </mxCell>
                <mxCell id="384" value="&lt;span style=&quot;color: rgb(0, 0, 0);&quot;&gt;Stop the Camera PC and Monitored PC&lt;/span&gt;" style="rounded=1;whiteSpace=wrap;html=1;movable=0;resizable=0;rotatable=0;deletable=0;editable=0;locked=1;connectable=0;fillColor=#dae8fc;strokeColor=#6c8ebf;" parent="11" vertex="1">
                    <mxGeometry x="10" y="2650" width="140" height="60" as="geometry"/>
                </mxCell>
                <mxCell id="385" value="L" style="ellipse;html=1;fontStyle=1;movable=0;resizable=0;rotatable=0;deletable=0;editable=0;locked=1;connectable=0;" parent="11" vertex="1">
                    <mxGeometry x="229.99999999999955" y="2665" width="30" height="30" as="geometry"/>
                </mxCell>
                <mxCell id="382" value="No" style="text;html=1;align=center;verticalAlign=middle;resizable=0;points=[];autosize=1;strokeColor=none;fillColor=none;movable=0;rotatable=0;deletable=0;editable=0;locked=1;connectable=0;" parent="11" vertex="1">
                    <mxGeometry x="280" y="2540" width="40" height="30" as="geometry"/>
                </mxCell>
                <mxCell id="394" value="" style="ellipse;html=1;shape=startState;fillColor=#000000;strokeColor=#ff0000;movable=0;resizable=0;rotatable=0;deletable=0;editable=0;locked=1;connectable=0;" parent="11" vertex="1">
                    <mxGeometry x="70.00000000000045" y="2750" width="20" height="20" as="geometry"/>
                </mxCell>
                <mxCell id="699" style="edgeStyle=orthogonalEdgeStyle;html=1;entryX=0.5;entryY=0;entryDx=0;entryDy=0;movable=0;resizable=0;rotatable=0;deletable=0;editable=0;locked=1;connectable=0;" edge="1" parent="11" source="218" target="256">
                    <mxGeometry relative="1" as="geometry"/>
                </mxCell>
                <mxCell id="218" value="GUI shows the robot." style="rhombus;whiteSpace=wrap;html=1;movable=0;resizable=0;rotatable=0;deletable=0;editable=0;locked=1;connectable=0;fillColor=#dae8fc;strokeColor=#6c8ebf;" parent="11" vertex="1">
                    <mxGeometry x="94.99999999999955" y="900" width="170" height="80" as="geometry"/>
                </mxCell>
                <mxCell id="251" value="No" style="text;html=1;align=center;verticalAlign=middle;resizable=0;points=[];autosize=1;strokeColor=none;fillColor=none;movable=0;rotatable=0;deletable=0;editable=0;locked=1;connectable=0;" parent="11" vertex="1">
                    <mxGeometry x="269.99999999999955" y="910" width="40" height="30" as="geometry"/>
                </mxCell>
                <mxCell id="701" value="Yes" style="text;html=1;align=center;verticalAlign=middle;resizable=0;points=[];autosize=1;strokeColor=none;fillColor=none;movable=0;rotatable=0;deletable=0;editable=0;locked=1;connectable=0;" vertex="1" parent="11">
                    <mxGeometry x="139.99999999999955" y="980" width="40" height="30" as="geometry"/>
                </mxCell>
                <mxCell id="746" value="Yes" style="text;html=1;align=center;verticalAlign=middle;resizable=0;points=[];autosize=1;strokeColor=none;fillColor=none;movable=0;rotatable=0;deletable=0;editable=0;locked=1;connectable=0;" vertex="1" parent="11">
                    <mxGeometry x="150" y="2610" width="40" height="30" as="geometry"/>
                </mxCell>
                <mxCell id="12" value="Monitoring PC" style="swimlane;startSize=20;html=1;strokeColor=#808080;movable=0;resizable=0;rotatable=0;deletable=0;editable=0;locked=1;connectable=0;container=0;" parent="10" vertex="1">
                    <mxGeometry x="360" y="20" width="360" height="2780" as="geometry"/>
                </mxCell>
                <mxCell id="216" value="&lt;span style=&quot;color: rgb(0, 0, 0);&quot;&gt;Show the Robot Postion&lt;br&gt;&lt;/span&gt;" style="rounded=1;whiteSpace=wrap;html=1;movable=0;resizable=0;rotatable=0;deletable=0;editable=0;locked=1;connectable=0;fillColor=#dae8fc;strokeColor=#6c8ebf;" parent="12" vertex="1">
                    <mxGeometry x="200" y="835" width="140" height="60" as="geometry"/>
                </mxCell>
                <mxCell id="344" style="edgeStyle=none;html=1;movable=0;resizable=0;rotatable=0;deletable=0;editable=0;locked=1;connectable=0;" parent="12" source="342" target="343" edge="1">
                    <mxGeometry relative="1" as="geometry"/>
                </mxCell>
                <mxCell id="342" value="&lt;div style=&quot;&quot;&gt;&lt;br&gt;&lt;/div&gt;" style="shape=mxgraph.sysml.accEvent;flipH=1;whiteSpace=wrap;align=center;html=1;movable=0;resizable=0;rotatable=0;deletable=0;editable=0;locked=1;connectable=0;fillColor=#d5e8d4;strokeColor=#82b366;" parent="12" vertex="1">
                    <mxGeometry x="153.75" y="1950" width="167.5" height="120" as="geometry"/>
                </mxCell>
                <mxCell id="343" value="&lt;span style=&quot;color: rgb(0, 0, 0);&quot;&gt;&lt;span style=&quot;color: rgb(0, 0, 0);&quot;&gt;Show the Time delay&lt;br&gt;and Force&lt;/span&gt;&lt;/span&gt;" style="rounded=1;whiteSpace=wrap;html=1;movable=0;resizable=0;rotatable=0;deletable=0;editable=0;locked=1;connectable=0;fillColor=#dae8fc;strokeColor=#6c8ebf;" parent="12" vertex="1">
                    <mxGeometry x="167.5" y="2120" width="140" height="60" as="geometry"/>
                </mxCell>
                <mxCell id="347" value="&lt;div&gt;&lt;span style=&quot;color: rgb(0, 0, 0);&quot;&gt;&lt;b style=&quot;color: rgb(63, 63, 63);&quot;&gt;Receive data&lt;/b&gt;&lt;/span&gt;&lt;/div&gt;&lt;div&gt;&lt;div style=&quot;text-align: left;&quot;&gt;&lt;span style=&quot;background-color: transparent;&quot;&gt;&amp;nbsp;double Actual Force[2]&amp;nbsp;&lt;/span&gt;&lt;/div&gt;&lt;div&gt;&lt;div style=&quot;text-align: left;&quot;&gt;&lt;span style=&quot;background-color: transparent;&quot;&gt;&amp;nbsp;double Virtual Force[6]&amp;nbsp;&lt;/span&gt;&lt;/div&gt;&lt;div style=&quot;text-align: left; color: rgb(63, 63, 63);&quot;&gt;&amp;nbsp;double Ideal Force[6]&amp;nbsp;&lt;/div&gt;&lt;/div&gt;&lt;div&gt;&lt;div style=&quot;text-align: left;&quot;&gt;&lt;span style=&quot;background-color: transparent;&quot;&gt;&amp;nbsp;double Time Delay&lt;/span&gt;&lt;span style=&quot;background-color: transparent; white-space: pre;&quot;&gt;&#x9;&lt;/span&gt;&lt;/div&gt;&lt;div&gt;&lt;div style=&quot;text-align: left;&quot;&gt;&amp;nbsp;long Send Time&amp;nbsp;&lt;span style=&quot;white-space: pre;&quot;&gt;&#x9;&lt;/span&gt;&lt;/div&gt;&lt;div style=&quot;text-align: left; color: rgb(63, 63, 63);&quot;&gt;&amp;nbsp;long Receive Time&amp;nbsp;&lt;/div&gt;&lt;/div&gt;&lt;/div&gt;&lt;/div&gt;" style="text;html=1;align=center;verticalAlign=middle;whiteSpace=wrap;rounded=0;movable=0;resizable=0;rotatable=0;deletable=0;editable=0;locked=1;connectable=0;" parent="12" vertex="1">
                    <mxGeometry x="153.75" y="1950" width="146.25" height="120" as="geometry"/>
                </mxCell>
                <mxCell id="374" value="Converting CSV files" style="rounded=1;whiteSpace=wrap;html=1;movable=0;resizable=0;rotatable=0;deletable=0;editable=0;locked=1;connectable=0;fillColor=#dae8fc;strokeColor=#6c8ebf;" parent="12" vertex="1">
                    <mxGeometry x="200.00000000000045" y="2431" width="140" height="60" as="geometry"/>
                </mxCell>
                <mxCell id="375" value="" style="edgeStyle=none;html=1;movable=0;resizable=0;rotatable=0;deletable=0;editable=0;locked=1;connectable=0;" parent="12" source="376" target="374" edge="1">
                    <mxGeometry relative="1" as="geometry"/>
                </mxCell>
                <mxCell id="376" value="K" style="ellipse;html=1;fontStyle=1;movable=0;resizable=0;rotatable=0;deletable=0;editable=0;locked=1;connectable=0;" parent="12" vertex="1">
                    <mxGeometry x="65" y="2446" width="30" height="30" as="geometry"/>
                </mxCell>
                <mxCell id="390" value="&lt;span style=&quot;color: rgb(0, 0, 0);&quot;&gt;End the program&lt;/span&gt;" style="rounded=1;whiteSpace=wrap;html=1;movable=0;resizable=0;rotatable=0;deletable=0;editable=0;locked=1;connectable=0;fillColor=#dae8fc;strokeColor=#6c8ebf;" parent="12" vertex="1">
                    <mxGeometry x="200" y="2650" width="140" height="60" as="geometry"/>
                </mxCell>
                <mxCell id="391" value="" style="edgeStyle=none;html=1;movable=0;resizable=0;rotatable=0;deletable=0;editable=0;locked=1;connectable=0;" parent="12" source="392" target="390" edge="1">
                    <mxGeometry relative="1" as="geometry"/>
                </mxCell>
                <mxCell id="392" value="L" style="ellipse;html=1;fontStyle=1;movable=0;resizable=0;rotatable=0;deletable=0;editable=0;locked=1;connectable=0;" parent="12" vertex="1">
                    <mxGeometry x="64.99999999999955" y="2665" width="30" height="30" as="geometry"/>
                </mxCell>
                <mxCell id="233" style="edgeStyle=none;html=1;strokeColor=#82b366;fillColor=#d5e8d4;strokeWidth=3;movable=0;resizable=0;rotatable=0;deletable=0;editable=0;locked=1;connectable=0;entryX=0;entryY=0.5;entryDx=30;entryDy=0;entryPerimeter=0;" parent="1" source="231" target="213" edge="1">
                    <mxGeometry relative="1" as="geometry">
                        <mxPoint x="-410" y="815" as="targetPoint"/>
                    </mxGeometry>
                </mxCell>
                <mxCell id="199" value="" style="edgeStyle=none;html=1;movable=0;resizable=0;rotatable=0;deletable=0;editable=0;locked=1;connectable=0;" parent="1" source="175" target="198" edge="1">
                    <mxGeometry relative="1" as="geometry"/>
                </mxCell>
                <mxCell id="175" value="Running the program" style="rounded=1;whiteSpace=wrap;html=1;movable=0;resizable=0;rotatable=0;deletable=0;editable=0;locked=1;connectable=0;fillColor=#dae8fc;strokeColor=#6c8ebf;" parent="1" vertex="1">
                    <mxGeometry x="-164.99999999999955" y="240" width="140" height="60" as="geometry"/>
                </mxCell>
                <mxCell id="176" value="" style="edgeStyle=none;html=1;movable=0;resizable=0;rotatable=0;deletable=0;editable=0;locked=1;connectable=0;" parent="1" source="177" target="175" edge="1">
                    <mxGeometry relative="1" as="geometry"/>
                </mxCell>
                <mxCell id="177" value="A" style="ellipse;html=1;fontStyle=1;movable=0;resizable=0;rotatable=0;deletable=0;editable=0;locked=1;connectable=0;" parent="1" vertex="1">
                    <mxGeometry x="-300" y="255" width="30" height="30" as="geometry"/>
                </mxCell>
                <mxCell id="181" value="&lt;span style=&quot;color: rgb(0, 0, 0);&quot;&gt;Set Location&lt;br&gt;about IP and Port&lt;/span&gt;" style="rounded=1;whiteSpace=wrap;html=1;movable=0;resizable=0;rotatable=0;deletable=0;editable=0;locked=1;connectable=0;fillColor=#dae8fc;strokeColor=#6c8ebf;" parent="1" vertex="1">
                    <mxGeometry x="-164.99999999999955" y="400" width="140" height="60" as="geometry"/>
                </mxCell>
                <mxCell id="182" value="" style="edgeStyle=none;html=1;movable=0;resizable=0;rotatable=0;deletable=0;editable=0;locked=1;connectable=0;" parent="1" source="183" target="181" edge="1">
                    <mxGeometry relative="1" as="geometry"/>
                </mxCell>
                <mxCell id="183" value="B" style="ellipse;html=1;fontStyle=1;movable=0;resizable=0;rotatable=0;deletable=0;editable=0;locked=1;connectable=0;" parent="1" vertex="1">
                    <mxGeometry x="-300" y="415" width="30" height="30" as="geometry"/>
                </mxCell>
                <mxCell id="193" value="&lt;span style=&quot;color: rgb(0, 0, 0);&quot;&gt;Apply the IP and Port&lt;/span&gt;" style="rounded=1;whiteSpace=wrap;html=1;movable=0;resizable=0;rotatable=0;deletable=0;editable=0;locked=1;connectable=0;fillColor=#dae8fc;strokeColor=#6c8ebf;" parent="1" vertex="1">
                    <mxGeometry x="-164.99999999999955" y="510" width="140" height="60" as="geometry"/>
                </mxCell>
                <mxCell id="194" value="" style="edgeStyle=none;html=1;movable=0;resizable=0;rotatable=0;deletable=0;editable=0;locked=1;connectable=0;" parent="1" source="195" target="193" edge="1">
                    <mxGeometry relative="1" as="geometry"/>
                </mxCell>
                <mxCell id="195" value="C" style="ellipse;html=1;fontStyle=1;movable=0;resizable=0;rotatable=0;deletable=0;editable=0;locked=1;connectable=0;" parent="1" vertex="1">
                    <mxGeometry x="-300" y="525" width="30" height="30" as="geometry"/>
                </mxCell>
                <mxCell id="198" value="&lt;span style=&quot;color: rgb(0, 0, 0);&quot;&gt;Display of the GUI&lt;/span&gt;" style="rounded=1;whiteSpace=wrap;html=1;movable=0;resizable=0;rotatable=0;deletable=0;editable=0;locked=1;connectable=0;fillColor=#dae8fc;strokeColor=#6c8ebf;" parent="1" vertex="1">
                    <mxGeometry x="-164.99999999999955" y="320" width="140" height="60" as="geometry"/>
                </mxCell>
                <mxCell id="206" value="&lt;span style=&quot;color: rgb(0, 0, 0);&quot;&gt;Running the program&lt;/span&gt;" style="rounded=1;whiteSpace=wrap;html=1;movable=0;resizable=0;rotatable=0;deletable=0;editable=0;locked=1;connectable=0;fillColor=#dae8fc;strokeColor=#6c8ebf;" parent="1" vertex="1">
                    <mxGeometry x="-164.99999999999955" y="590" width="140" height="60" as="geometry"/>
                </mxCell>
                <mxCell id="207" value="" style="edgeStyle=none;html=1;movable=0;resizable=0;rotatable=0;deletable=0;editable=0;locked=1;connectable=0;" parent="1" source="208" target="206" edge="1">
                    <mxGeometry relative="1" as="geometry"/>
                </mxCell>
                <mxCell id="208" value="D" style="ellipse;html=1;fontStyle=1;movable=0;resizable=0;rotatable=0;deletable=0;editable=0;locked=1;connectable=0;" parent="1" vertex="1">
                    <mxGeometry x="-300" y="605" width="30" height="30" as="geometry"/>
                </mxCell>
                <mxCell id="227" value="Get the postion of robot" style="rounded=1;whiteSpace=wrap;html=1;movable=0;resizable=0;rotatable=0;deletable=0;editable=0;locked=1;connectable=0;fillColor=#dae8fc;strokeColor=#6c8ebf;" parent="1" vertex="1">
                    <mxGeometry x="-164.99999999999955" y="670" width="140" height="60" as="geometry"/>
                </mxCell>
                <mxCell id="228" value="" style="edgeStyle=none;html=1;movable=0;resizable=0;rotatable=0;deletable=0;editable=0;locked=1;connectable=0;" parent="1" source="229" target="227" edge="1">
                    <mxGeometry relative="1" as="geometry"/>
                </mxCell>
                <mxCell id="229" value="E" style="ellipse;html=1;fontStyle=1;movable=0;resizable=0;rotatable=0;deletable=0;editable=0;locked=1;connectable=0;" parent="1" vertex="1">
                    <mxGeometry x="-300" y="685" width="30" height="30" as="geometry"/>
                </mxCell>
                <mxCell id="231" value="&lt;span style=&quot;color: rgb(0, 0, 0);&quot;&gt;&amp;nbsp;double Copy Pos[3]&amp;nbsp;&lt;/span&gt;&lt;span style=&quot;white-space: pre;&quot;&gt;&#x9;&lt;/span&gt;&lt;span style=&quot;color: rgb(0, 0, 0);&quot;&gt;→ 24bytes&lt;/span&gt;&lt;div style=&quot;&quot;&gt;&lt;span style=&quot;color: rgb(0, 0, 0);&quot;&gt;&amp;nbsp;double Copy Vel[3]&amp;nbsp;&lt;span style=&quot;white-space: pre;&quot;&gt;&#x9;&lt;/span&gt;→ 24bytes&lt;/span&gt;&lt;font&gt;&lt;br&gt;&lt;/font&gt;&lt;div&gt;&amp;nbsp;double Master Pos[3]&amp;nbsp;&lt;span style=&quot;white-space: pre;&quot;&gt;&#x9;&lt;/span&gt;→ 24 bytes&lt;/div&gt;&lt;div&gt;&lt;span style=&quot;color: rgb(63, 63, 63);&quot;&gt;&amp;nbsp;double Master Vel[3]&amp;nbsp;&lt;span style=&quot;white-space: pre;&quot;&gt;&#x9;&lt;/span&gt;→ 24 bytes&lt;/span&gt;&lt;/div&gt;&lt;div&gt;&amp;nbsp;long Cycle Time&lt;span style=&quot;white-space: pre;&quot;&gt;&#x9;&lt;/span&gt;&lt;span style=&quot;white-space: pre;&quot;&gt;&#x9;&lt;/span&gt;→ 8bytes&lt;br&gt;&lt;div style=&quot;text-align: center;&quot;&gt;&lt;span style=&quot;background-color: transparent;&quot;&gt;&amp;nbsp;&lt;b&gt;Send data at 100Hz&lt;/b&gt;&lt;/span&gt;&lt;/div&gt;&lt;/div&gt;&lt;/div&gt;" style="shape=mxgraph.sysml.sendSigAct;whiteSpace=wrap;align=left;html=1;movable=0;resizable=0;rotatable=0;deletable=0;editable=0;locked=1;connectable=0;fillColor=#d5e8d4;strokeColor=#82b366;" parent="1" vertex="1">
                    <mxGeometry x="-270" y="770" width="220" height="90" as="geometry"/>
                </mxCell>
                <mxCell id="232" style="edgeStyle=orthogonalEdgeStyle;html=1;entryX=0.5;entryY=0;entryDx=0;entryDy=0;entryPerimeter=0;movable=0;resizable=0;rotatable=0;deletable=0;editable=0;locked=1;connectable=0;" parent="1" source="227" target="231" edge="1">
                    <mxGeometry relative="1" as="geometry"/>
                </mxCell>
                <mxCell id="240" value="Close the Window" style="rounded=1;whiteSpace=wrap;html=1;movable=0;resizable=0;rotatable=0;deletable=0;editable=0;locked=1;connectable=0;fillColor=#dae8fc;strokeColor=#6c8ebf;" parent="1" vertex="1">
                    <mxGeometry x="-162.49999999999955" y="870" width="140" height="60" as="geometry"/>
                </mxCell>
                <mxCell id="241" value="" style="edgeStyle=none;html=1;movable=0;resizable=0;rotatable=0;deletable=0;editable=0;locked=1;connectable=0;" parent="1" source="242" target="240" edge="1">
                    <mxGeometry relative="1" as="geometry"/>
                </mxCell>
                <mxCell id="242" value="F" style="ellipse;html=1;fontStyle=1;movable=0;resizable=0;rotatable=0;deletable=0;editable=0;locked=1;connectable=0;" parent="1" vertex="1">
                    <mxGeometry x="-297.5" y="885" width="30" height="30" as="geometry"/>
                </mxCell>
                <mxCell id="197" value="" style="edgeStyle=none;html=1;movable=0;resizable=0;rotatable=0;deletable=0;editable=0;locked=1;connectable=0;" parent="1" source="158" target="196" edge="1">
                    <mxGeometry relative="1" as="geometry"/>
                </mxCell>
                <mxCell id="158" value="Running the program" style="rounded=1;whiteSpace=wrap;html=1;movable=0;resizable=0;rotatable=0;deletable=0;editable=0;locked=1;connectable=0;fillColor=#dae8fc;strokeColor=#6c8ebf;" parent="1" vertex="1">
                    <mxGeometry x="-579.9999999999995" y="240" width="140" height="60" as="geometry"/>
                </mxCell>
                <mxCell id="174" value="" style="edgeStyle=none;html=1;movable=0;resizable=0;rotatable=0;deletable=0;editable=0;locked=1;connectable=0;" parent="1" source="163" target="158" edge="1">
                    <mxGeometry relative="1" as="geometry"/>
                </mxCell>
                <mxCell id="163" value="A" style="ellipse;html=1;fontStyle=1;movable=0;resizable=0;rotatable=0;deletable=0;editable=0;locked=1;connectable=0;" parent="1" vertex="1">
                    <mxGeometry x="-715" y="255" width="30" height="30" as="geometry"/>
                </mxCell>
                <mxCell id="178" value="&lt;span style=&quot;color: rgb(0, 0, 0);&quot;&gt;Select Location&lt;/span&gt;" style="rounded=1;whiteSpace=wrap;html=1;movable=0;resizable=0;rotatable=0;deletable=0;editable=0;locked=1;connectable=0;fillColor=#dae8fc;strokeColor=#6c8ebf;" parent="1" vertex="1">
                    <mxGeometry x="-579.9999999999995" y="400" width="140" height="60" as="geometry"/>
                </mxCell>
                <mxCell id="179" value="" style="edgeStyle=none;html=1;movable=0;resizable=0;rotatable=0;deletable=0;editable=0;locked=1;connectable=0;" parent="1" source="180" target="178" edge="1">
                    <mxGeometry relative="1" as="geometry"/>
                </mxCell>
                <mxCell id="180" value="B" style="ellipse;html=1;fontStyle=1;movable=0;resizable=0;rotatable=0;deletable=0;editable=0;locked=1;connectable=0;" parent="1" vertex="1">
                    <mxGeometry x="-715" y="415" width="30" height="30" as="geometry"/>
                </mxCell>
                <mxCell id="196" value="&lt;span style=&quot;color: rgb(0, 0, 0);&quot;&gt;Display of the GUI&lt;/span&gt;&lt;div&gt;, IP and Port&lt;/div&gt;" style="rounded=1;whiteSpace=wrap;html=1;movable=0;resizable=0;rotatable=0;deletable=0;editable=0;locked=1;connectable=0;fillColor=#dae8fc;strokeColor=#6c8ebf;" parent="1" vertex="1">
                    <mxGeometry x="-579.9999999999995" y="320" width="140" height="60" as="geometry"/>
                </mxCell>
                <mxCell id="203" value="&lt;span style=&quot;color: rgb(0, 0, 0);&quot;&gt;Running the program&lt;/span&gt;" style="rounded=1;whiteSpace=wrap;html=1;movable=0;resizable=0;rotatable=0;deletable=0;editable=0;locked=1;connectable=0;fillColor=#dae8fc;strokeColor=#6c8ebf;" parent="1" vertex="1">
                    <mxGeometry x="-579.9999999999995" y="590" width="140" height="60" as="geometry"/>
                </mxCell>
                <mxCell id="204" value="" style="edgeStyle=none;html=1;movable=0;resizable=0;rotatable=0;deletable=0;editable=0;locked=1;connectable=0;" parent="1" source="205" target="203" edge="1">
                    <mxGeometry relative="1" as="geometry"/>
                </mxCell>
                <mxCell id="205" value="D" style="ellipse;html=1;fontStyle=1;movable=0;resizable=0;rotatable=0;deletable=0;editable=0;locked=1;connectable=0;" parent="1" vertex="1">
                    <mxGeometry x="-715" y="605" width="30" height="30" as="geometry"/>
                </mxCell>
                <mxCell id="217" style="edgeStyle=none;html=1;movable=0;resizable=0;rotatable=0;deletable=0;editable=0;locked=1;connectable=0;" parent="1" source="213" target="216" edge="1">
                    <mxGeometry relative="1" as="geometry"/>
                </mxCell>
                <mxCell id="213" value="&lt;div style=&quot;text-align: left;&quot;&gt;&lt;span style=&quot;background-color: transparent;&quot;&gt;&lt;span style=&quot;white-space: pre;&quot;&gt;&#x9;&lt;/span&gt;&lt;/span&gt;&lt;b style=&quot;color: rgb(63, 63, 63);&quot;&gt;Receive&amp;nbsp;&lt;/b&gt;&lt;span style=&quot;background-color: transparent;&quot;&gt;&lt;b&gt;data&lt;br&gt;&lt;/b&gt;&lt;/span&gt;&lt;/div&gt;&lt;div style=&quot;text-align: left;&quot;&gt;&lt;span style=&quot;background-color: transparent;&quot;&gt;double Copy Pos[3]&amp;nbsp;&lt;/span&gt;&lt;/div&gt;&lt;div style=&quot;text-align: left;&quot;&gt;double Copy Vel[3]&lt;/div&gt;&lt;div style=&quot;text-align: left;&quot;&gt;double Master Pos[3]&lt;/div&gt;&lt;div style=&quot;text-align: left;&quot;&gt;&lt;span style=&quot;color: rgb(63, 63, 63);&quot;&gt;double Master Vel[3]&lt;/span&gt;&lt;/div&gt;&lt;div style=&quot;text-align: left;&quot;&gt;long Cycle Time&lt;br&gt;&lt;/div&gt;" style="shape=mxgraph.sysml.accEvent;flipH=1;whiteSpace=wrap;align=center;html=1;movable=0;resizable=0;rotatable=0;deletable=0;editable=0;locked=1;connectable=0;fillColor=#d5e8d4;strokeColor=#82b366;" parent="1" vertex="1">
                    <mxGeometry x="-589.9999999999995" y="765" width="160" height="100" as="geometry"/>
                </mxCell>
                <mxCell id="215" style="edgeStyle=none;html=1;entryX=0.5;entryY=0;entryDx=0;entryDy=0;entryPerimeter=0;movable=0;resizable=0;rotatable=0;deletable=0;editable=0;locked=1;connectable=0;" parent="1" source="203" target="213" edge="1">
                    <mxGeometry relative="1" as="geometry"/>
                </mxCell>
                <mxCell id="153" value="" style="edgeStyle=none;html=1;movable=0;resizable=0;rotatable=0;deletable=0;editable=0;locked=1;connectable=0;" parent="1" source="151" target="152" edge="1">
                    <mxGeometry relative="1" as="geometry"/>
                </mxCell>
                <mxCell id="151" value="" style="ellipse;html=1;shape=startState;fillColor=#000000;strokeColor=#ff0000;movable=0;resizable=0;rotatable=0;deletable=0;editable=0;locked=1;connectable=0;" parent="1" vertex="1">
                    <mxGeometry x="-1069.9999999999995" y="160" width="20" height="20" as="geometry"/>
                </mxCell>
                <mxCell id="162" style="edgeStyle=none;html=1;entryX=0;entryY=0.5;entryDx=0;entryDy=0;movable=0;resizable=0;rotatable=0;deletable=0;editable=0;locked=1;connectable=0;" parent="1" source="152" target="160" edge="1">
                    <mxGeometry relative="1" as="geometry"/>
                </mxCell>
                <mxCell id="170" value="" style="edgeStyle=none;html=1;movable=0;resizable=0;rotatable=0;deletable=0;editable=0;locked=1;connectable=0;" parent="1" source="152" target="169" edge="1">
                    <mxGeometry relative="1" as="geometry"/>
                </mxCell>
                <mxCell id="152" value="Starting the application on the Camera PC and Monitoring PC" style="rounded=1;whiteSpace=wrap;html=1;movable=0;resizable=0;rotatable=0;deletable=0;editable=0;locked=1;connectable=0;fillColor=#dae8fc;strokeColor=#6c8ebf;" parent="1" vertex="1">
                    <mxGeometry x="-1129.9999999999995" y="240" width="140" height="60" as="geometry"/>
                </mxCell>
                <mxCell id="160" value="A" style="ellipse;html=1;fontStyle=1;movable=0;resizable=0;rotatable=0;deletable=0;editable=0;locked=1;connectable=0;" parent="1" vertex="1">
                    <mxGeometry x="-910" y="255" width="30" height="30" as="geometry"/>
                </mxCell>
                <mxCell id="172" value="" style="edgeStyle=none;html=1;movable=0;resizable=0;rotatable=0;deletable=0;editable=0;locked=1;connectable=0;" parent="1" source="169" target="171" edge="1">
                    <mxGeometry relative="1" as="geometry"/>
                </mxCell>
                <mxCell id="697" value="" style="edgeStyle=none;html=1;movable=0;resizable=0;rotatable=0;deletable=0;editable=0;locked=1;connectable=0;" edge="1" parent="1" source="169" target="188">
                    <mxGeometry relative="1" as="geometry"/>
                </mxCell>
                <mxCell id="169" value="&lt;span style=&quot;color: rgb(0, 0, 0);&quot;&gt;Select Location&lt;/span&gt;&lt;br&gt;&lt;span style=&quot;color: rgb(0, 0, 0);&quot;&gt;and Enter the Port and IP&lt;br&gt;of Monitoring PC&lt;/span&gt;" style="rounded=1;whiteSpace=wrap;html=1;movable=0;resizable=0;rotatable=0;deletable=0;editable=0;locked=1;connectable=0;fillColor=#dae8fc;strokeColor=#6c8ebf;" parent="1" vertex="1">
                    <mxGeometry x="-1129.9999999999995" y="400" width="140" height="60" as="geometry"/>
                </mxCell>
                <mxCell id="171" value="B" style="ellipse;html=1;fontStyle=1;movable=0;resizable=0;rotatable=0;deletable=0;editable=0;locked=1;connectable=0;" parent="1" vertex="1">
                    <mxGeometry x="-910" y="415" width="30" height="30" as="geometry"/>
                </mxCell>
                <mxCell id="191" style="edgeStyle=none;html=1;entryX=0;entryY=0.5;entryDx=0;entryDy=0;movable=0;resizable=0;rotatable=0;deletable=0;editable=0;locked=1;connectable=0;" parent="1" source="188" target="190" edge="1">
                    <mxGeometry relative="1" as="geometry"/>
                </mxCell>
                <mxCell id="211" value="" style="edgeStyle=none;html=1;movable=0;resizable=0;rotatable=0;deletable=0;editable=0;locked=1;connectable=0;" parent="1" source="188" target="200" edge="1">
                    <mxGeometry relative="1" as="geometry"/>
                </mxCell>
                <mxCell id="188" value="Push the &quot;Apply&quot;" style="rounded=1;whiteSpace=wrap;html=1;movable=0;resizable=0;rotatable=0;deletable=0;editable=0;locked=1;connectable=0;fillColor=#dae8fc;strokeColor=#6c8ebf;" parent="1" vertex="1">
                    <mxGeometry x="-1129.9999999999995" y="510" width="140" height="60" as="geometry"/>
                </mxCell>
                <mxCell id="190" value="C" style="ellipse;html=1;fontStyle=1;movable=0;resizable=0;rotatable=0;deletable=0;editable=0;locked=1;connectable=0;" parent="1" vertex="1">
                    <mxGeometry x="-910" y="525" width="30" height="30" as="geometry"/>
                </mxCell>
                <mxCell id="202" value="" style="edgeStyle=none;html=1;movable=0;resizable=0;rotatable=0;deletable=0;editable=0;locked=1;connectable=0;" parent="1" source="200" target="201" edge="1">
                    <mxGeometry relative="1" as="geometry"/>
                </mxCell>
                <mxCell id="224" value="" style="edgeStyle=none;html=1;movable=0;resizable=0;rotatable=0;deletable=0;editable=0;locked=1;connectable=0;" parent="1" source="200" target="212" edge="1">
                    <mxGeometry relative="1" as="geometry"/>
                </mxCell>
                <mxCell id="200" value="Push the &quot;Start&quot; of Camera PC and Monitoring PC" style="rounded=1;whiteSpace=wrap;html=1;movable=0;resizable=0;rotatable=0;deletable=0;editable=0;locked=1;connectable=0;fillColor=#dae8fc;strokeColor=#6c8ebf;" parent="1" vertex="1">
                    <mxGeometry x="-1129.9999999999995" y="590" width="140" height="60" as="geometry"/>
                </mxCell>
                <mxCell id="201" value="D" style="ellipse;html=1;fontStyle=1;movable=0;resizable=0;rotatable=0;deletable=0;editable=0;locked=1;connectable=0;" parent="1" vertex="1">
                    <mxGeometry x="-910" y="605" width="30" height="30" as="geometry"/>
                </mxCell>
                <mxCell id="226" value="" style="edgeStyle=none;html=1;movable=0;resizable=0;rotatable=0;deletable=0;editable=0;locked=1;connectable=0;" parent="1" source="212" target="225" edge="1">
                    <mxGeometry relative="1" as="geometry"/>
                </mxCell>
                <mxCell id="253" style="edgeStyle=none;html=1;entryX=0.5;entryY=0;entryDx=0;entryDy=0;movable=0;resizable=0;rotatable=0;deletable=0;editable=0;locked=1;connectable=0;" parent="1" source="212" target="236" edge="1">
                    <mxGeometry relative="1" as="geometry"/>
                </mxCell>
                <mxCell id="212" value="&lt;span style=&quot;color: rgb(0, 0, 0);&quot;&gt;Direction recognition&lt;/span&gt;" style="rounded=1;whiteSpace=wrap;html=1;movable=0;resizable=0;rotatable=0;deletable=0;editable=0;locked=1;connectable=0;fillColor=#dae8fc;strokeColor=#6c8ebf;" parent="1" vertex="1">
                    <mxGeometry x="-1129.9999999999995" y="670" width="140" height="60" as="geometry"/>
                </mxCell>
                <mxCell id="225" value="E" style="ellipse;html=1;fontStyle=1;movable=0;resizable=0;rotatable=0;deletable=0;editable=0;locked=1;connectable=0;" parent="1" vertex="1">
                    <mxGeometry x="-910" y="685" width="30" height="30" as="geometry"/>
                </mxCell>
                <mxCell id="235" value="" style="edgeStyle=none;html=1;movable=0;resizable=0;rotatable=0;deletable=0;editable=0;locked=1;connectable=0;" parent="1" source="236" target="237" edge="1">
                    <mxGeometry relative="1" as="geometry"/>
                </mxCell>
                <mxCell id="698" style="edgeStyle=orthogonalEdgeStyle;html=1;entryX=0.5;entryY=0;entryDx=0;entryDy=0;movable=0;resizable=0;rotatable=0;deletable=0;editable=0;locked=1;connectable=0;" edge="1" parent="1" source="236" target="218">
                    <mxGeometry relative="1" as="geometry"/>
                </mxCell>
                <mxCell id="236" value="&lt;span style=&quot;color: rgb(0, 0, 0);&quot;&gt;Push the &quot;DeleteWindow&quot;&lt;/span&gt;" style="rounded=1;whiteSpace=wrap;html=1;movable=0;resizable=0;rotatable=0;deletable=0;editable=0;locked=1;connectable=0;fillColor=#dae8fc;strokeColor=#6c8ebf;" parent="1" vertex="1">
                    <mxGeometry x="-1129.9999999999995" y="870" width="140" height="60" as="geometry"/>
                </mxCell>
                <mxCell id="237" value="F" style="ellipse;html=1;fontStyle=1;movable=0;resizable=0;rotatable=0;deletable=0;editable=0;locked=1;connectable=0;" parent="1" vertex="1">
                    <mxGeometry x="-910" y="885" width="30" height="30" as="geometry"/>
                </mxCell>
                <mxCell id="299" style="edgeStyle=orthogonalEdgeStyle;html=1;strokeColor=#82b366;fillColor=#d5e8d4;strokeWidth=3;movable=1;resizable=1;rotatable=1;deletable=1;editable=1;locked=0;connectable=1;exitX=0;exitY=0.5;exitDx=0;exitDy=0;exitPerimeter=0;entryX=1;entryY=0.5;entryDx=0;entryDy=0;entryPerimeter=0;" parent="1" source="231" target="287" edge="1">
                    <mxGeometry relative="1" as="geometry">
                        <mxPoint x="-260" y="825" as="sourcePoint"/>
                        <mxPoint x="-270" y="1210" as="targetPoint"/>
                        <Array as="points">
                            <mxPoint x="-310" y="815"/>
                            <mxPoint x="-310" y="1725"/>
                        </Array>
                    </mxGeometry>
                </mxCell>
                <mxCell id="2" value="Location A" style="swimlane;childLayout=stackLayout;resizeParent=1;resizeParentMax=0;startSize=20;html=1;strokeColor=#808080;movable=0;resizable=0;rotatable=0;deletable=0;editable=0;locked=1;connectable=0;container=0;" parent="1" vertex="1">
                    <mxGeometry x="-360" y="80" width="1109.9999999999995" height="2800" as="geometry"/>
                </mxCell>
                <mxCell id="3" value="Camera PC" style="swimlane;startSize=20;html=1;strokeColor=#808080;aspect=fixed;movable=0;resizable=0;rotatable=0;deletable=0;editable=0;locked=1;connectable=0;container=0;" parent="2" vertex="1">
                    <mxGeometry y="20" width="360" height="2780" as="geometry"/>
                </mxCell>
                <mxCell id="387" value="&lt;span style=&quot;color: rgb(0, 0, 0);&quot;&gt;End the program&lt;/span&gt;" style="rounded=1;whiteSpace=wrap;html=1;movable=0;resizable=0;rotatable=0;deletable=0;editable=0;locked=1;connectable=0;fillColor=#dae8fc;strokeColor=#6c8ebf;" parent="3" vertex="1">
                    <mxGeometry x="195" y="2650" width="140" height="60" as="geometry"/>
                </mxCell>
                <mxCell id="388" value="" style="edgeStyle=none;html=1;movable=0;resizable=0;rotatable=0;deletable=0;editable=0;locked=1;connectable=0;" parent="3" source="389" target="387" edge="1">
                    <mxGeometry relative="1" as="geometry"/>
                </mxCell>
                <mxCell id="389" value="L" style="ellipse;html=1;fontStyle=1;movable=0;resizable=0;rotatable=0;deletable=0;editable=0;locked=1;connectable=0;" parent="3" vertex="1">
                    <mxGeometry x="59.999999999999545" y="2665" width="30" height="30" as="geometry"/>
                </mxCell>
                <mxCell id="4" value="Raspberry Pi" style="swimlane;startSize=20;html=1;strokeColor=#808080;aspect=fixed;movable=0;resizable=0;rotatable=0;deletable=0;editable=0;locked=1;connectable=0;container=0;" parent="2" vertex="1">
                    <mxGeometry x="360" y="20" width="360" height="2780" as="geometry"/>
                </mxCell>
                <mxCell id="260" value="&lt;span style=&quot;color: rgb(0, 0, 0);&quot;&gt;Running the program&lt;/span&gt;" style="rounded=1;whiteSpace=wrap;html=1;movable=0;resizable=0;rotatable=0;deletable=0;editable=0;locked=1;connectable=0;fillColor=#dae8fc;strokeColor=#6c8ebf;" parent="4" vertex="1">
                    <mxGeometry x="195" y="1070" width="140" height="60" as="geometry"/>
                </mxCell>
                <mxCell id="261" value="" style="edgeStyle=none;html=1;movable=0;resizable=0;rotatable=0;deletable=0;editable=0;locked=1;connectable=0;" parent="4" source="262" target="260" edge="1">
                    <mxGeometry relative="1" as="geometry"/>
                </mxCell>
                <mxCell id="262" value="G" style="ellipse;html=1;fontStyle=1;movable=0;resizable=0;rotatable=0;deletable=0;editable=0;locked=1;connectable=0;" parent="4" vertex="1">
                    <mxGeometry x="59.999999999999545" y="1085" width="30" height="30" as="geometry"/>
                </mxCell>
                <mxCell id="331" value="Udp receive thread 1" style="shape=umlFrame;whiteSpace=wrap;html=1;pointerEvents=0;recursiveResize=0;container=1;collapsible=0;width=160;movable=0;resizable=0;rotatable=0;deletable=0;editable=0;locked=1;connectable=0;" parent="4" vertex="1">
                    <mxGeometry x="40" y="1155" width="290" height="385" as="geometry"/>
                </mxCell>
                <mxCell id="263" value="&lt;div style=&quot;text-align: left;&quot;&gt;&lt;span style=&quot;background-color: transparent;&quot;&gt;&lt;span style=&quot;white-space: pre;&quot;&gt;&#x9;&lt;/span&gt;&lt;b&gt;Receive data&lt;br&gt;&lt;/b&gt;&lt;/span&gt;&lt;/div&gt;&lt;div style=&quot;text-align: left;&quot;&gt;&lt;span style=&quot;background-color: transparent;&quot;&gt;double Copy Pos[3]&amp;nbsp;&lt;/span&gt;&lt;/div&gt;&lt;div style=&quot;text-align: left;&quot;&gt;double Copy Vel[3]&lt;/div&gt;&lt;div style=&quot;text-align: left;&quot;&gt;double Master Pos[3]&lt;/div&gt;&lt;div style=&quot;text-align: left;&quot;&gt;&lt;span style=&quot;color: rgb(63, 63, 63);&quot;&gt;double Master Vel[3]&lt;/span&gt;&lt;/div&gt;&lt;div style=&quot;text-align: left;&quot;&gt;long Cycle Time&lt;br&gt;&lt;/div&gt;" style="shape=mxgraph.sysml.accEvent;flipH=1;whiteSpace=wrap;align=center;html=1;movable=0;resizable=0;rotatable=0;deletable=0;editable=0;locked=1;connectable=0;fillColor=#d5e8d4;strokeColor=#82b366;" parent="331" vertex="1">
                    <mxGeometry x="59.999999999999545" y="45" width="160" height="100" as="geometry"/>
                </mxCell>
                <mxCell id="349" style="edgeStyle=none;html=1;entryX=0.5;entryY=0;entryDx=0;entryDy=0;movable=0;resizable=0;rotatable=0;deletable=0;editable=0;locked=1;connectable=0;" parent="331" source="267" target="348" edge="1">
                    <mxGeometry relative="1" as="geometry"/>
                </mxCell>
                <mxCell id="267" value="&amp;nbsp;double Copy Pos[3] &lt;span style=&quot;white-space: pre;&quot;&gt;&#x9;&lt;/span&gt;→ 24bytes&lt;div&gt;&lt;span style=&quot;color: rgb(0, 0, 0);&quot;&gt;&amp;nbsp;double Copy Vel[3] &lt;span style=&quot;white-space: pre;&quot;&gt;&#x9;&lt;/span&gt;→ 24bytes&lt;/span&gt;&lt;font color=&quot;#000000&quot;&gt;&lt;br&gt;&lt;/font&gt;&lt;div&gt;&amp;nbsp;double Master Pos[3] &lt;span style=&quot;white-space: pre;&quot;&gt;&#x9;&lt;/span&gt;→ 24 bytes&lt;/div&gt;&lt;div&gt;&lt;span style=&quot;color: rgb(63, 63, 63);&quot;&gt;&amp;nbsp;double Master Vel[3] &lt;span style=&quot;white-space: pre;&quot;&gt;&#x9;&lt;/span&gt;→ 24 bytes&lt;/span&gt;&lt;/div&gt;&lt;div&gt;&amp;nbsp;long Send Time &lt;span style=&quot;white-space: pre;&quot;&gt;&#x9;&lt;/span&gt;&lt;span style=&quot;white-space: pre;&quot;&gt;&#x9;&lt;/span&gt;→ 8bytes&lt;/div&gt;&lt;/div&gt;&lt;div style=&quot;text-align: center;&quot;&gt;&lt;b style=&quot;color: rgb(63, 63, 63);&quot;&gt;Send data&lt;/b&gt;&lt;/div&gt;" style="shape=mxgraph.sysml.sendSigAct;whiteSpace=wrap;align=left;html=1;movable=0;resizable=0;rotatable=0;deletable=0;editable=0;locked=1;connectable=0;fillColor=#d5e8d4;strokeColor=#82b366;" parent="331" vertex="1">
                    <mxGeometry x="29.999999999999545" y="175" width="220" height="90" as="geometry"/>
                </mxCell>
                <mxCell id="335" style="edgeStyle=none;html=1;entryX=0.5;entryY=0;entryDx=0;entryDy=0;entryPerimeter=0;movable=0;resizable=0;rotatable=0;deletable=0;editable=0;locked=1;connectable=0;" parent="331" source="263" target="267" edge="1">
                    <mxGeometry relative="1" as="geometry"/>
                </mxCell>
                <mxCell id="348" value="Save to CSV" style="rounded=0;whiteSpace=wrap;html=1;movable=0;resizable=0;rotatable=0;deletable=0;editable=0;locked=1;connectable=0;fillColor=#dae8fc;strokeColor=#6c8ebf;" parent="331" vertex="1">
                    <mxGeometry x="65" y="305" width="150" height="60" as="geometry"/>
                </mxCell>
                <mxCell id="333" value="Udp receive thread 2" style="shape=umlFrame;whiteSpace=wrap;html=1;pointerEvents=0;recursiveResize=0;container=1;collapsible=0;width=160;movable=0;resizable=0;rotatable=0;deletable=0;editable=0;locked=1;connectable=0;" parent="4" vertex="1">
                    <mxGeometry x="40" y="1710" width="280" height="450" as="geometry"/>
                </mxCell>
                <mxCell id="304" value="&lt;div style=&quot;text-align: left;&quot;&gt;&lt;br&gt;&lt;/div&gt;" style="shape=mxgraph.sysml.accEvent;flipH=1;whiteSpace=wrap;align=center;html=1;movable=0;resizable=0;rotatable=0;deletable=0;editable=0;locked=1;connectable=0;fillColor=#d5e8d4;strokeColor=#82b366;" parent="333" vertex="1">
                    <mxGeometry x="60" y="40" width="180" height="140" as="geometry"/>
                </mxCell>
                <mxCell id="337" value="&lt;div style=&quot;text-align: center;&quot;&gt;&lt;span style=&quot;background-color: transparent;&quot;&gt;&lt;span style=&quot;white-space: pre;&quot;&gt;&#x9;&lt;/span&gt;&lt;b&gt;Receive data&lt;br&gt;&lt;/b&gt;&lt;/span&gt;&lt;/div&gt;&lt;div style=&quot;&quot;&gt;&lt;span style=&quot;background-color: transparent; color: rgb(0, 0, 0);&quot;&gt;&amp;nbsp;double Pos Err[3]&amp;nbsp;&lt;/span&gt;&lt;/div&gt;&lt;div style=&quot;&quot;&gt;&lt;span style=&quot;color: rgb(0, 0, 0);&quot;&gt;&amp;nbsp;double Control Vel[3]&amp;nbsp;&lt;/span&gt;&lt;/div&gt;&lt;div style=&quot;&quot;&gt;&lt;span style=&quot;color: rgb(0, 0, 0);&quot;&gt;&lt;div&gt;&lt;span style=&quot;background-color: transparent; color: rgb(0, 0, 0);&quot;&gt;&amp;nbsp;double Wheel Vel[3]&amp;nbsp;&lt;/span&gt;&lt;/div&gt;&lt;div&gt;&lt;span style=&quot;color: rgb(0, 0, 0);&quot;&gt;&amp;nbsp;double Mortor Vol[3]&amp;nbsp;&lt;/span&gt;&lt;/div&gt;&lt;div&gt;&lt;span style=&quot;background-color: transparent;&quot;&gt;&amp;nbsp;&lt;/span&gt;&lt;span style=&quot;background-color: transparent; color: rgb(0, 0, 0);&quot;&gt;double Actual Force[2]&lt;/span&gt;&lt;span style=&quot;background-color: transparent; color: rgb(0, 0, 0);&quot;&gt;&amp;nbsp;&lt;/span&gt;&lt;/div&gt;&lt;/span&gt;&lt;/div&gt;&lt;div style=&quot;&quot;&gt;&lt;span style=&quot;color: rgb(0, 0, 0);&quot;&gt;&amp;nbsp;double Virtual Force[6]&amp;nbsp;&lt;/span&gt;&lt;br&gt;&lt;div&gt;&amp;nbsp;double Ideal Force[6]&amp;nbsp;&lt;/div&gt;&lt;/div&gt;&lt;div style=&quot;&quot;&gt;&lt;span style=&quot;background-color: transparent;&quot;&gt;&amp;nbsp;long Send Time&lt;/span&gt;&lt;span style=&quot;background-color: transparent;&quot;&gt;&amp;nbsp;&lt;/span&gt;&lt;/div&gt;" style="text;html=1;align=left;verticalAlign=middle;whiteSpace=wrap;rounded=0;movable=0;resizable=0;rotatable=0;deletable=0;editable=0;locked=1;connectable=0;" parent="333" vertex="1">
                    <mxGeometry x="60" y="40" width="180" height="140" as="geometry"/>
                </mxCell>
                <mxCell id="351" value="" style="edgeStyle=none;html=1;movable=0;resizable=0;rotatable=0;deletable=0;editable=0;locked=1;connectable=0;" parent="333" source="338" target="350" edge="1">
                    <mxGeometry relative="1" as="geometry"/>
                </mxCell>
                <mxCell id="338" value="&amp;nbsp;double Actual Force[2]&amp;nbsp;&lt;span style=&quot;white-space: pre;&quot;&gt;&#x9;&lt;/span&gt;→ 16bytes&lt;div&gt;&lt;span style=&quot;color: rgb(0, 0, 0);&quot;&gt;&amp;nbsp;double Virtual Force[6]&amp;nbsp;&lt;span style=&quot;white-space: pre;&quot;&gt;&#x9;&lt;/span&gt;→ 16bytes&lt;/span&gt;&lt;font&gt;&lt;br&gt;&lt;/font&gt;&lt;div style=&quot;color: rgb(63, 63, 63);&quot;&gt;&amp;nbsp;double Ideal Force[6]&amp;nbsp;&lt;span style=&quot;white-space: pre;&quot;&gt;&#x9;&lt;/span&gt;→ 16 bytes&lt;/div&gt;&lt;/div&gt;&lt;div&gt;&amp;nbsp;double Time Delay&lt;span style=&quot;white-space: pre;&quot;&gt;&#x9;&lt;/span&gt;&lt;span style=&quot;white-space: pre;&quot;&gt;&#x9;&lt;/span&gt;→ 8bytes&lt;div&gt;&lt;div&gt;&lt;div&gt;&amp;nbsp;long Send Time &lt;span style=&quot;white-space: pre;&quot;&gt;&#x9;&lt;/span&gt;&lt;span style=&quot;white-space: pre;&quot;&gt;&#x9;&lt;/span&gt;→ 8bytes&lt;/div&gt;&lt;/div&gt;&lt;div style=&quot;color: rgb(63, 63, 63);&quot;&gt;&amp;nbsp;long Receive Time&amp;nbsp;&lt;span style=&quot;white-space: pre;&quot;&gt;&#x9;&lt;/span&gt;→ 8bytes&lt;/div&gt;&lt;div style=&quot;text-align: center;&quot;&gt;&lt;b style=&quot;color: rgb(63, 63, 63);&quot;&gt;Send data&lt;/b&gt;&lt;/div&gt;&lt;/div&gt;&lt;/div&gt;" style="shape=mxgraph.sysml.sendSigAct;whiteSpace=wrap;align=left;html=1;movable=0;resizable=0;rotatable=0;deletable=0;editable=0;locked=1;connectable=0;fillColor=#d5e8d4;strokeColor=#82b366;" parent="333" vertex="1">
                    <mxGeometry x="40" y="225" width="220" height="110" as="geometry"/>
                </mxCell>
                <mxCell id="339" style="edgeStyle=none;html=1;entryX=0.5;entryY=0;entryDx=0;entryDy=0;entryPerimeter=0;movable=0;resizable=0;rotatable=0;deletable=0;editable=0;locked=1;connectable=0;" parent="333" source="337" target="338" edge="1">
                    <mxGeometry relative="1" as="geometry"/>
                </mxCell>
                <mxCell id="350" value="Save to CSV" style="rounded=0;whiteSpace=wrap;html=1;movable=0;resizable=0;rotatable=0;deletable=0;editable=0;locked=1;connectable=0;fillColor=#dae8fc;strokeColor=#6c8ebf;" parent="333" vertex="1">
                    <mxGeometry x="75" y="370" width="150" height="60" as="geometry"/>
                </mxCell>
                <mxCell id="368" value="&lt;span style=&quot;color: rgb(0, 0, 0);&quot;&gt;End the program&lt;/span&gt;" style="rounded=1;whiteSpace=wrap;html=1;movable=0;resizable=0;rotatable=0;deletable=0;editable=0;locked=1;connectable=0;fillColor=#dae8fc;strokeColor=#6c8ebf;" parent="4" vertex="1">
                    <mxGeometry x="206" y="2350" width="140" height="60" as="geometry"/>
                </mxCell>
                <mxCell id="744" style="edgeStyle=orthogonalEdgeStyle;html=1;entryX=1.012;entryY=0.458;entryDx=0;entryDy=0;entryPerimeter=0;movable=0;resizable=0;rotatable=0;deletable=0;editable=0;locked=1;connectable=0;" edge="1" parent="4" source="260" target="331">
                    <mxGeometry relative="1" as="geometry">
                        <Array as="points">
                            <mxPoint x="265" y="1140"/>
                            <mxPoint x="350" y="1140"/>
                            <mxPoint x="350" y="1331"/>
                        </Array>
                    </mxGeometry>
                </mxCell>
                <mxCell id="745" style="edgeStyle=orthogonalEdgeStyle;html=1;entryX=1.017;entryY=0.152;entryDx=0;entryDy=0;entryPerimeter=0;movable=0;resizable=0;rotatable=0;deletable=0;editable=0;locked=1;connectable=0;" edge="1" parent="4" source="260" target="333">
                    <mxGeometry relative="1" as="geometry">
                        <Array as="points">
                            <mxPoint x="265" y="1140"/>
                            <mxPoint x="350" y="1140"/>
                            <mxPoint x="350" y="1778"/>
                        </Array>
                    </mxGeometry>
                </mxCell>
                <mxCell id="5" value="&lt;span style=&quot;color: rgb(0, 0, 0);&quot;&gt;Copy Robot&lt;/span&gt;" style="swimlane;startSize=20;html=1;aspect=fixed;movable=0;resizable=0;rotatable=0;deletable=0;editable=0;locked=1;connectable=0;container=0;strokeColor=#808080;" parent="2" vertex="1">
                    <mxGeometry x="720" y="20" width="389.99999999999955" height="2780" as="geometry"/>
                </mxCell>
                <mxCell id="280" value="&lt;span style=&quot;color: rgb(0, 0, 0);&quot;&gt;Start the program&lt;/span&gt;" style="rounded=1;whiteSpace=wrap;html=1;movable=0;resizable=0;rotatable=0;deletable=0;editable=0;locked=1;connectable=0;fillColor=#dae8fc;strokeColor=#6c8ebf;" parent="5" vertex="1">
                    <mxGeometry x="225" y="1430" width="140" height="60" as="geometry"/>
                </mxCell>
                <mxCell id="281" value="" style="edgeStyle=none;html=1;movable=0;resizable=0;rotatable=0;deletable=0;editable=0;locked=1;connectable=0;" parent="5" source="282" target="280" edge="1">
                    <mxGeometry relative="1" as="geometry"/>
                </mxCell>
                <mxCell id="282" value="H" style="ellipse;html=1;fontStyle=1;movable=0;resizable=0;rotatable=0;deletable=0;editable=0;locked=1;connectable=0;" parent="5" vertex="1">
                    <mxGeometry x="89.99999999999955" y="1445" width="30" height="30" as="geometry"/>
                </mxCell>
                <mxCell id="306" value="Udp receive thread 1" style="shape=umlFrame;whiteSpace=wrap;html=1;pointerEvents=0;recursiveResize=0;container=1;collapsible=0;width=160;movable=0;resizable=0;rotatable=0;deletable=0;editable=0;locked=1;connectable=0;" parent="5" vertex="1">
                    <mxGeometry x="40" y="1530" width="280" height="170" as="geometry"/>
                </mxCell>
                <mxCell id="287" value="&lt;div style=&quot;&quot;&gt;&lt;b style=&quot;color: rgb(63, 63, 63);&quot;&gt;Receive data from A&lt;/b&gt;&lt;/div&gt;&lt;div style=&quot;text-align: left;&quot;&gt;&lt;span style=&quot;background-color: transparent;&quot;&gt;double Copy Pos[3]&amp;nbsp;&lt;/span&gt;&lt;/div&gt;&lt;div style=&quot;text-align: left;&quot;&gt;double Copy Vel[3]&lt;/div&gt;&lt;div style=&quot;text-align: left;&quot;&gt;double Master Pos[3]&lt;/div&gt;&lt;div style=&quot;text-align: left;&quot;&gt;&lt;span style=&quot;color: rgb(63, 63, 63);&quot;&gt;double Master Vel[3]&lt;/span&gt;&lt;/div&gt;&lt;div style=&quot;text-align: left;&quot;&gt;long&amp;nbsp;&lt;span style=&quot;color: rgb(63, 63, 63); background-color: transparent;&quot;&gt;Send Time&lt;/span&gt;&lt;br&gt;&lt;/div&gt;" style="shape=mxgraph.sysml.accEvent;flipH=1;whiteSpace=wrap;align=center;html=1;movable=0;resizable=0;rotatable=0;deletable=0;editable=0;locked=1;connectable=0;fillColor=#d5e8d4;strokeColor=#82b366;" parent="306" vertex="1">
                    <mxGeometry x="50" y="50" width="167.5" height="90" as="geometry"/>
                </mxCell>
                <mxCell id="320" value="Udp receive thread 2" style="shape=umlFrame;whiteSpace=wrap;html=1;pointerEvents=0;recursiveResize=0;container=1;collapsible=0;width=160;movable=0;resizable=0;rotatable=0;deletable=0;editable=0;locked=1;connectable=0;" parent="5" vertex="1">
                    <mxGeometry x="40" y="1710" width="280" height="170" as="geometry"/>
                </mxCell>
                <mxCell id="300" value="&lt;div style=&quot;&quot;&gt;&lt;b style=&quot;color: rgb(63, 63, 63);&quot;&gt;Receive data from B&lt;/b&gt;&lt;/div&gt;&lt;div style=&quot;text-align: left;&quot;&gt;&lt;span style=&quot;background-color: transparent;&quot;&gt;double Copy Pos[3]&amp;nbsp;&lt;/span&gt;&lt;/div&gt;&lt;div style=&quot;text-align: left;&quot;&gt;double Copy Vel[3]&lt;/div&gt;&lt;div style=&quot;text-align: left;&quot;&gt;double Master Pos[3]&lt;/div&gt;&lt;div style=&quot;text-align: left;&quot;&gt;&lt;span style=&quot;color: rgb(63, 63, 63);&quot;&gt;double Master Vel[3]&lt;/span&gt;&lt;/div&gt;&lt;div style=&quot;text-align: left;&quot;&gt;&lt;span style=&quot;color: rgb(63, 63, 63);&quot;&gt;long Cycle Time&lt;/span&gt;&lt;/div&gt;" style="shape=mxgraph.sysml.accEvent;flipH=1;whiteSpace=wrap;align=center;html=1;movable=0;resizable=0;rotatable=0;deletable=0;editable=0;locked=1;connectable=0;fillColor=#d5e8d4;strokeColor=#82b366;" parent="320" vertex="1">
                    <mxGeometry x="50" y="50" width="167.5" height="90" as="geometry"/>
                </mxCell>
                <mxCell id="322" value="main thread" style="shape=umlFrame;whiteSpace=wrap;html=1;pointerEvents=0;recursiveResize=0;container=1;collapsible=0;width=160;movable=0;resizable=0;rotatable=0;deletable=0;editable=0;locked=1;connectable=0;" parent="5" vertex="1">
                    <mxGeometry x="40" y="1890" width="280" height="280" as="geometry"/>
                </mxCell>
                <mxCell id="289" value="Control Robot&lt;br&gt;30Hz" style="rounded=0;whiteSpace=wrap;html=1;movable=0;resizable=0;rotatable=0;deletable=0;editable=0;locked=1;connectable=0;fillColor=#dae8fc;strokeColor=#6c8ebf;" parent="322" vertex="1">
                    <mxGeometry x="58.75" y="40" width="150" height="60" as="geometry"/>
                </mxCell>
                <mxCell id="293" value="&lt;div&gt;&lt;span style=&quot;background-color: transparent; color: rgb(0, 0, 0);&quot;&gt;&amp;nbsp;double Pos Err[3]&amp;nbsp;&lt;/span&gt;&lt;span style=&quot;background-color: transparent; white-space: pre;&quot;&gt;&#x9;&lt;/span&gt;&lt;span style=&quot;background-color: transparent; color: rgb(0, 0, 0);&quot;&gt;→ 24bytes&lt;/span&gt;&lt;span style=&quot;color: rgb(0, 0, 0);&quot;&gt;&amp;nbsp;&lt;/span&gt;&lt;/div&gt;&lt;div&gt;&lt;span style=&quot;color: rgb(0, 0, 0);&quot;&gt;&amp;nbsp;double Control Vel[3]&amp;nbsp;&lt;/span&gt;&lt;span style=&quot;white-space: pre;&quot;&gt;&#x9;&lt;/span&gt;&lt;span style=&quot;color: rgb(0, 0, 0);&quot;&gt;→ 24bytes&lt;/span&gt;&lt;/div&gt;&lt;div&gt;&lt;span style=&quot;color: rgb(0, 0, 0);&quot;&gt;&lt;div&gt;&lt;span style=&quot;background-color: transparent; color: rgb(0, 0, 0);&quot;&gt;&amp;nbsp;double Wheel Vel[3]&amp;nbsp;&lt;/span&gt;&lt;span style=&quot;background-color: transparent; white-space: pre;&quot;&gt;&#x9;&lt;/span&gt;&lt;span style=&quot;background-color: transparent; color: rgb(0, 0, 0);&quot;&gt;→ 24bytes&lt;/span&gt;&lt;span style=&quot;color: rgb(0, 0, 0);&quot;&gt;&amp;nbsp;&lt;/span&gt;&lt;/div&gt;&lt;div&gt;&lt;span style=&quot;color: rgb(0, 0, 0);&quot;&gt;&amp;nbsp;double Mortor Vol[3]&amp;nbsp;&lt;/span&gt;&lt;span style=&quot;white-space: pre;&quot;&gt;&#x9;&lt;/span&gt;&lt;span style=&quot;color: rgb(0, 0, 0);&quot;&gt;→ 24bytes&lt;/span&gt;&lt;/div&gt;&lt;/span&gt;&lt;/div&gt;&amp;nbsp;double Actual Force[2] &lt;span style=&quot;white-space: pre;&quot;&gt;&#x9;&lt;/span&gt;→ 16bytes&lt;div&gt;&lt;span style=&quot;color: rgb(0, 0, 0);&quot;&gt;&amp;nbsp;double Virtual Force[6] &lt;span style=&quot;white-space: pre;&quot;&gt;&#x9;&lt;/span&gt;→ 16bytes&lt;/span&gt;&lt;font color=&quot;#000000&quot;&gt;&lt;br&gt;&lt;/font&gt;&lt;div&gt;&amp;nbsp;double Ideal Force[6] &lt;span style=&quot;white-space: pre;&quot;&gt;&#x9;&lt;/span&gt;→ 16 bytes&lt;/div&gt;&lt;div&gt;&amp;nbsp;long Send Time &lt;span style=&quot;white-space: pre;&quot;&gt;&#x9;&lt;/span&gt;&lt;span style=&quot;white-space: pre;&quot;&gt;&#x9;&lt;/span&gt;→ 8bytes&lt;/div&gt;&lt;/div&gt;&lt;div style=&quot;text-align: center;&quot;&gt;&lt;b style=&quot;color: rgb(63, 63, 63);&quot;&gt;Send data&lt;/b&gt;&lt;/div&gt;" style="shape=mxgraph.sysml.sendSigAct;whiteSpace=wrap;align=left;html=1;movable=0;resizable=0;rotatable=0;deletable=0;editable=0;locked=1;connectable=0;fillColor=#d5e8d4;strokeColor=#82b366;" parent="322" vertex="1">
                    <mxGeometry x="23.75" y="128" width="220" height="140" as="geometry"/>
                </mxCell>
                <mxCell id="295" style="edgeStyle=orthogonalEdgeStyle;html=1;entryX=0.5;entryY=0;entryDx=0;entryDy=0;entryPerimeter=0;movable=0;resizable=0;rotatable=0;deletable=0;editable=0;locked=1;connectable=0;" parent="322" source="289" target="293" edge="1">
                    <mxGeometry relative="1" as="geometry"/>
                </mxCell>
                <mxCell id="324" style="edgeStyle=orthogonalEdgeStyle;html=1;entryX=1.013;entryY=0.483;entryDx=0;entryDy=0;entryPerimeter=0;movable=0;resizable=0;rotatable=0;deletable=0;editable=0;locked=1;connectable=0;" parent="5" source="280" target="306" edge="1">
                    <mxGeometry relative="1" as="geometry">
                        <Array as="points">
                            <mxPoint x="295" y="1510"/>
                            <mxPoint x="360" y="1510"/>
                            <mxPoint x="360" y="1612"/>
                        </Array>
                    </mxGeometry>
                </mxCell>
                <mxCell id="325" style="edgeStyle=orthogonalEdgeStyle;html=1;entryX=1.007;entryY=0.433;entryDx=0;entryDy=0;entryPerimeter=0;movable=0;resizable=0;rotatable=0;deletable=0;editable=0;locked=1;connectable=0;" parent="5" source="280" target="320" edge="1">
                    <mxGeometry relative="1" as="geometry">
                        <Array as="points">
                            <mxPoint x="295" y="1510"/>
                            <mxPoint x="360" y="1510"/>
                            <mxPoint x="360" y="1784"/>
                            <mxPoint x="322" y="1784"/>
                        </Array>
                    </mxGeometry>
                </mxCell>
                <mxCell id="326" style="edgeStyle=orthogonalEdgeStyle;html=1;entryX=1.002;entryY=0.549;entryDx=0;entryDy=0;entryPerimeter=0;movable=0;resizable=0;rotatable=0;deletable=0;editable=0;locked=1;connectable=0;" parent="5" source="280" target="322" edge="1">
                    <mxGeometry relative="1" as="geometry">
                        <Array as="points">
                            <mxPoint x="295" y="1510"/>
                            <mxPoint x="360" y="1510"/>
                            <mxPoint x="360" y="2044"/>
                        </Array>
                    </mxGeometry>
                </mxCell>
                <mxCell id="327" style="edgeStyle=orthogonalEdgeStyle;html=1;entryX=1;entryY=0.5;entryDx=0;entryDy=0;movable=0;resizable=0;rotatable=0;deletable=0;editable=0;locked=1;connectable=0;" parent="5" source="287" target="289" edge="1">
                    <mxGeometry relative="1" as="geometry">
                        <Array as="points">
                            <mxPoint x="174" y="1680"/>
                            <mxPoint x="290" y="1680"/>
                            <mxPoint x="290" y="1960"/>
                        </Array>
                    </mxGeometry>
                </mxCell>
                <mxCell id="328" style="edgeStyle=orthogonalEdgeStyle;html=1;entryX=1;entryY=0.5;entryDx=0;entryDy=0;movable=0;resizable=0;rotatable=0;deletable=0;editable=0;locked=1;connectable=0;" parent="5" source="300" target="289" edge="1">
                    <mxGeometry relative="1" as="geometry">
                        <Array as="points">
                            <mxPoint x="174" y="1860"/>
                            <mxPoint x="267" y="1860"/>
                            <mxPoint x="267" y="1960"/>
                        </Array>
                    </mxGeometry>
                </mxCell>
                <mxCell id="365" value="Save the CSV file to the file server" style="rounded=1;whiteSpace=wrap;html=1;movable=0;resizable=0;rotatable=0;deletable=0;editable=0;locked=1;connectable=0;fillColor=#dae8fc;strokeColor=#6c8ebf;" parent="5" vertex="1">
                    <mxGeometry x="-155" y="2270" width="140" height="60" as="geometry"/>
                </mxCell>
                <mxCell id="366" value="" style="edgeStyle=none;html=1;movable=0;resizable=0;rotatable=0;deletable=0;editable=0;locked=1;connectable=0;" parent="5" source="367" target="365" edge="1">
                    <mxGeometry relative="1" as="geometry"/>
                </mxCell>
                <mxCell id="367" value="J" style="ellipse;html=1;fontStyle=1;movable=0;resizable=0;rotatable=0;deletable=0;editable=0;locked=1;connectable=0;" parent="5" vertex="1">
                    <mxGeometry x="-290.00000000000045" y="2285" width="30" height="30" as="geometry"/>
                </mxCell>
                <mxCell id="355" value="&lt;span style=&quot;color: rgb(0, 0, 0);&quot;&gt;End the program&lt;/span&gt;" style="rounded=1;whiteSpace=wrap;html=1;movable=0;resizable=0;rotatable=0;deletable=0;editable=0;locked=1;connectable=0;fillColor=#dae8fc;strokeColor=#6c8ebf;" parent="5" vertex="1">
                    <mxGeometry x="225" y="2190" width="140" height="60" as="geometry"/>
                </mxCell>
                <mxCell id="356" value="" style="edgeStyle=none;html=1;movable=0;resizable=0;rotatable=0;deletable=0;editable=0;locked=1;connectable=0;" parent="5" source="357" target="355" edge="1">
                    <mxGeometry relative="1" as="geometry"/>
                </mxCell>
                <mxCell id="357" value="I" style="ellipse;html=1;fontStyle=1;movable=0;resizable=0;rotatable=0;deletable=0;editable=0;locked=1;connectable=0;" parent="5" vertex="1">
                    <mxGeometry x="89.99999999999955" y="2205" width="30" height="30" as="geometry"/>
                </mxCell>
                <mxCell id="346" style="html=1;strokeColor=#82b366;fillColor=#d5e8d4;strokeWidth=3;movable=0;resizable=0;rotatable=0;deletable=0;editable=0;locked=1;connectable=0;exitX=0;exitY=0.5;exitDx=0;exitDy=0;exitPerimeter=0;entryX=0.778;entryY=0.5;entryDx=0;entryDy=0;entryPerimeter=0;edgeStyle=orthogonalEdgeStyle;" parent="2" source="293" target="337" edge="1">
                    <mxGeometry relative="1" as="geometry">
                        <mxPoint x="450" y="2195" as="sourcePoint"/>
                        <mxPoint x="-125" y="2040" as="targetPoint"/>
                        <Array as="points">
                            <mxPoint x="700" y="2108"/>
                            <mxPoint x="700" y="1840"/>
                        </Array>
                    </mxGeometry>
                </mxCell>
                <mxCell id="369" value="" style="edgeStyle=none;html=1;movable=0;resizable=0;rotatable=0;deletable=0;editable=0;locked=1;connectable=0;" parent="2" source="365" target="368" edge="1">
                    <mxGeometry relative="1" as="geometry"/>
                </mxCell>
                <mxCell id="345" style="edgeStyle=orthogonalEdgeStyle;html=1;strokeColor=#82b366;fillColor=#d5e8d4;strokeWidth=3;movable=0;resizable=0;rotatable=0;deletable=0;editable=0;locked=1;connectable=0;exitX=0;exitY=0.5;exitDx=0;exitDy=0;exitPerimeter=0;entryX=0;entryY=0.5;entryDx=36;entryDy=0;entryPerimeter=0;" parent="1" source="338" target="342" edge="1">
                    <mxGeometry relative="1" as="geometry">
                        <mxPoint x="-60" y="2230" as="sourcePoint"/>
                        <mxPoint x="-220" y="2230" as="targetPoint"/>
                        <Array as="points">
                            <mxPoint x="10" y="2090"/>
                            <mxPoint x="10" y="2110"/>
                        </Array>
                    </mxGeometry>
                </mxCell>
                <mxCell id="580" value="" style="edgeStyle=none;html=1;movable=0;resizable=0;rotatable=0;deletable=0;editable=0;locked=1;connectable=0;" parent="1" source="581" target="591" edge="1">
                    <mxGeometry relative="1" as="geometry"/>
                </mxCell>
                <mxCell id="581" value="Running the program" style="rounded=1;whiteSpace=wrap;html=1;movable=0;resizable=0;rotatable=0;deletable=0;editable=0;locked=1;connectable=0;fillColor=#dae8fc;strokeColor=#6c8ebf;" parent="1" vertex="1">
                    <mxGeometry x="1015.0000000000005" y="240" width="140" height="60" as="geometry"/>
                </mxCell>
                <mxCell id="582" value="" style="edgeStyle=none;html=1;movable=0;resizable=0;rotatable=0;deletable=0;editable=0;locked=1;connectable=0;" parent="1" source="583" target="581" edge="1">
                    <mxGeometry relative="1" as="geometry"/>
                </mxCell>
                <mxCell id="583" value="A" style="ellipse;html=1;fontStyle=1;movable=0;resizable=0;rotatable=0;deletable=0;editable=0;locked=1;connectable=0;" parent="1" vertex="1">
                    <mxGeometry x="880" y="255" width="30" height="30" as="geometry"/>
                </mxCell>
                <mxCell id="584" value="&lt;span style=&quot;color: rgb(0, 0, 0);&quot;&gt;Set Location&lt;/span&gt;&lt;br&gt;&lt;span style=&quot;color: rgb(0, 0, 0);&quot;&gt;about IP and Port&lt;/span&gt;" style="rounded=1;whiteSpace=wrap;html=1;movable=0;resizable=0;rotatable=0;deletable=0;editable=0;locked=1;connectable=0;fillColor=#dae8fc;strokeColor=#6c8ebf;" parent="1" vertex="1">
                    <mxGeometry x="1015.0000000000005" y="400" width="140" height="60" as="geometry"/>
                </mxCell>
                <mxCell id="585" value="" style="edgeStyle=none;html=1;movable=0;resizable=0;rotatable=0;deletable=0;editable=0;locked=1;connectable=0;" parent="1" source="586" target="584" edge="1">
                    <mxGeometry relative="1" as="geometry"/>
                </mxCell>
                <mxCell id="586" value="B" style="ellipse;html=1;fontStyle=1;movable=0;resizable=0;rotatable=0;deletable=0;editable=0;locked=1;connectable=0;" parent="1" vertex="1">
                    <mxGeometry x="880" y="415" width="30" height="30" as="geometry"/>
                </mxCell>
                <mxCell id="588" value="&lt;span style=&quot;color: rgb(0, 0, 0);&quot;&gt;Apply the IP and Port&lt;/span&gt;" style="rounded=1;whiteSpace=wrap;html=1;movable=0;resizable=0;rotatable=0;deletable=0;editable=0;locked=1;connectable=0;fillColor=#dae8fc;strokeColor=#6c8ebf;" parent="1" vertex="1">
                    <mxGeometry x="1015.0000000000005" y="510" width="140" height="60" as="geometry"/>
                </mxCell>
                <mxCell id="589" value="" style="edgeStyle=none;html=1;movable=0;resizable=0;rotatable=0;deletable=0;editable=0;locked=1;connectable=0;" parent="1" source="590" target="588" edge="1">
                    <mxGeometry relative="1" as="geometry"/>
                </mxCell>
                <mxCell id="590" value="C" style="ellipse;html=1;fontStyle=1;movable=0;resizable=0;rotatable=0;deletable=0;editable=0;locked=1;connectable=0;" parent="1" vertex="1">
                    <mxGeometry x="880" y="525" width="30" height="30" as="geometry"/>
                </mxCell>
                <mxCell id="591" value="&lt;span style=&quot;color: rgb(0, 0, 0);&quot;&gt;Display of the GUI&lt;/span&gt;" style="rounded=1;whiteSpace=wrap;html=1;movable=0;resizable=0;rotatable=0;deletable=0;editable=0;locked=1;connectable=0;fillColor=#dae8fc;strokeColor=#6c8ebf;" parent="1" vertex="1">
                    <mxGeometry x="1015.0000000000005" y="320" width="140" height="60" as="geometry"/>
                </mxCell>
                <mxCell id="592" value="&lt;span style=&quot;color: rgb(0, 0, 0);&quot;&gt;Running the program&lt;/span&gt;" style="rounded=1;whiteSpace=wrap;html=1;movable=0;resizable=0;rotatable=0;deletable=0;editable=0;locked=1;connectable=0;fillColor=#dae8fc;strokeColor=#6c8ebf;" parent="1" vertex="1">
                    <mxGeometry x="1015.0000000000005" y="590" width="140" height="60" as="geometry"/>
                </mxCell>
                <mxCell id="593" value="" style="edgeStyle=none;html=1;movable=0;resizable=0;rotatable=0;deletable=0;editable=0;locked=1;connectable=0;" parent="1" source="594" target="592" edge="1">
                    <mxGeometry relative="1" as="geometry"/>
                </mxCell>
                <mxCell id="594" value="D" style="ellipse;html=1;fontStyle=1;movable=0;resizable=0;rotatable=0;deletable=0;editable=0;locked=1;connectable=0;" parent="1" vertex="1">
                    <mxGeometry x="880" y="605" width="30" height="30" as="geometry"/>
                </mxCell>
                <mxCell id="596" value="&lt;span style=&quot;color: rgb(0, 0, 0);&quot;&gt;Get the postion of robot&lt;/span&gt;" style="rounded=1;whiteSpace=wrap;html=1;movable=0;resizable=0;rotatable=0;deletable=0;editable=0;locked=1;connectable=0;fillColor=#dae8fc;strokeColor=#6c8ebf;" parent="1" vertex="1">
                    <mxGeometry x="1015.0000000000005" y="670" width="140" height="60" as="geometry"/>
                </mxCell>
                <mxCell id="597" value="" style="edgeStyle=none;html=1;movable=0;resizable=0;rotatable=0;deletable=0;editable=0;locked=1;connectable=0;" parent="1" source="598" target="596" edge="1">
                    <mxGeometry relative="1" as="geometry"/>
                </mxCell>
                <mxCell id="598" value="E" style="ellipse;html=1;fontStyle=1;movable=0;resizable=0;rotatable=0;deletable=0;editable=0;locked=1;connectable=0;" parent="1" vertex="1">
                    <mxGeometry x="880" y="685" width="30" height="30" as="geometry"/>
                </mxCell>
                <mxCell id="660" style="edgeStyle=orthogonalEdgeStyle;html=1;fillColor=#d5e8d4;strokeColor=#82b366;strokeWidth=3;entryX=0;entryY=0.5;entryDx=30;entryDy=0;entryPerimeter=0;movable=0;resizable=0;rotatable=0;deletable=0;editable=0;locked=1;connectable=0;" edge="1" parent="1" source="599" target="213">
                    <mxGeometry relative="1" as="geometry">
                        <mxPoint x="-390" y="815" as="targetPoint"/>
                        <Array as="points">
                            <mxPoint x="790" y="815"/>
                            <mxPoint x="790" y="1000"/>
                            <mxPoint x="-380" y="1000"/>
                            <mxPoint x="-380" y="815"/>
                        </Array>
                    </mxGeometry>
                </mxCell>
                <mxCell id="599" value="&lt;span style=&quot;color: rgb(0, 0, 0);&quot;&gt;&amp;nbsp;double Copy Pos[3]&amp;nbsp;&lt;/span&gt;&lt;span style=&quot;white-space: pre;&quot;&gt;&#x9;&lt;/span&gt;&lt;span style=&quot;color: rgb(0, 0, 0);&quot;&gt;→ 24bytes&lt;/span&gt;&lt;div style=&quot;&quot;&gt;&lt;span style=&quot;color: rgb(0, 0, 0);&quot;&gt;&amp;nbsp;double Copy Vel[3]&amp;nbsp;&lt;span style=&quot;white-space: pre;&quot;&gt;&#x9;&lt;/span&gt;→ 24bytes&lt;/span&gt;&lt;font&gt;&lt;br&gt;&lt;/font&gt;&lt;div&gt;&amp;nbsp;double Master Pos[3]&amp;nbsp;&lt;span style=&quot;white-space: pre;&quot;&gt;&#x9;&lt;/span&gt;→ 24 bytes&lt;/div&gt;&lt;div&gt;&lt;span style=&quot;color: rgb(63, 63, 63);&quot;&gt;&amp;nbsp;double Master Vel[3]&amp;nbsp;&lt;span style=&quot;white-space: pre;&quot;&gt;&#x9;&lt;/span&gt;→ 24 bytes&lt;/span&gt;&lt;/div&gt;&lt;div&gt;&amp;nbsp;long Cycle Time&lt;span style=&quot;white-space: pre;&quot;&gt;&#x9;&lt;/span&gt;&lt;span style=&quot;white-space: pre;&quot;&gt;&#x9;&lt;/span&gt;→ 8bytes&lt;br&gt;&lt;div style=&quot;text-align: center;&quot;&gt;&lt;span style=&quot;background-color: transparent;&quot;&gt;&amp;nbsp;&lt;b&gt;Send data at 100Hz&lt;/b&gt;&lt;/span&gt;&lt;/div&gt;&lt;/div&gt;&lt;/div&gt;" style="shape=mxgraph.sysml.sendSigAct;whiteSpace=wrap;align=left;html=1;movable=0;resizable=0;rotatable=0;deletable=0;editable=0;locked=1;connectable=0;fillColor=#d5e8d4;strokeColor=#82b366;" parent="1" vertex="1">
                    <mxGeometry x="910" y="770" width="220" height="90" as="geometry"/>
                </mxCell>
                <mxCell id="600" style="edgeStyle=orthogonalEdgeStyle;html=1;entryX=0.5;entryY=0;entryDx=0;entryDy=0;entryPerimeter=0;movable=0;resizable=0;rotatable=0;deletable=0;editable=0;locked=1;connectable=0;" parent="1" source="596" target="599" edge="1">
                    <mxGeometry relative="1" as="geometry"/>
                </mxCell>
                <mxCell id="601" value="&lt;span style=&quot;color: rgb(0, 0, 0);&quot;&gt;Close the Window&lt;/span&gt;" style="rounded=1;whiteSpace=wrap;html=1;movable=0;resizable=0;rotatable=0;deletable=0;editable=0;locked=1;connectable=0;fillColor=#dae8fc;strokeColor=#6c8ebf;" parent="1" vertex="1">
                    <mxGeometry x="1017.5000000000005" y="870" width="140" height="60" as="geometry"/>
                </mxCell>
                <mxCell id="602" value="" style="edgeStyle=none;html=1;movable=0;resizable=0;rotatable=0;deletable=0;editable=0;locked=1;connectable=0;" parent="1" source="603" target="601" edge="1">
                    <mxGeometry relative="1" as="geometry"/>
                </mxCell>
                <mxCell id="603" value="F" style="ellipse;html=1;fontStyle=1;movable=0;resizable=0;rotatable=0;deletable=0;editable=0;locked=1;connectable=0;" parent="1" vertex="1">
                    <mxGeometry x="882.5" y="885" width="30" height="30" as="geometry"/>
                </mxCell>
                <mxCell id="604" style="edgeStyle=orthogonalEdgeStyle;html=1;strokeColor=#82b366;fillColor=#d5e8d4;strokeWidth=3;movable=0;resizable=0;rotatable=0;deletable=0;editable=0;locked=1;connectable=0;exitX=0;exitY=0.5;exitDx=0;exitDy=0;exitPerimeter=0;entryX=1;entryY=0.5;entryDx=0;entryDy=0;entryPerimeter=0;" parent="1" source="599" target="636" edge="1">
                    <mxGeometry relative="1" as="geometry">
                        <mxPoint x="920" y="825" as="sourcePoint"/>
                        <mxPoint x="910" y="1210" as="targetPoint"/>
                        <Array as="points">
                            <mxPoint x="870" y="815"/>
                            <mxPoint x="870" y="1675"/>
                            <mxPoint x="1570" y="1675"/>
                            <mxPoint x="1570" y="1725"/>
                        </Array>
                    </mxGeometry>
                </mxCell>
                <mxCell id="605" value="Location B" style="swimlane;childLayout=stackLayout;resizeParent=1;resizeParentMax=0;startSize=20;html=1;strokeColor=#808080;movable=0;resizable=0;rotatable=0;deletable=0;editable=0;locked=1;connectable=0;container=0;" parent="1" vertex="1">
                    <mxGeometry x="820" y="80" width="1109.9999999999995" height="2800" as="geometry"/>
                </mxCell>
                <mxCell id="606" value="Camera PC" style="swimlane;startSize=20;html=1;strokeColor=#808080;aspect=fixed;movable=0;resizable=0;rotatable=0;deletable=0;editable=0;locked=1;connectable=0;container=0;" parent="605" vertex="1">
                    <mxGeometry y="20" width="360" height="2780" as="geometry"/>
                </mxCell>
                <mxCell id="610" value="&lt;span style=&quot;color: rgb(0, 0, 0);&quot;&gt;End the program&lt;/span&gt;" style="rounded=1;whiteSpace=wrap;html=1;movable=0;resizable=0;rotatable=0;deletable=0;editable=0;locked=1;connectable=0;fillColor=#dae8fc;strokeColor=#6c8ebf;" parent="606" vertex="1">
                    <mxGeometry x="195" y="2650" width="140" height="60" as="geometry"/>
                </mxCell>
                <mxCell id="611" value="" style="edgeStyle=none;html=1;movable=0;resizable=0;rotatable=0;deletable=0;editable=0;locked=1;connectable=0;" parent="606" source="612" target="610" edge="1">
                    <mxGeometry relative="1" as="geometry"/>
                </mxCell>
                <mxCell id="612" value="L" style="ellipse;html=1;fontStyle=1;movable=0;resizable=0;rotatable=0;deletable=0;editable=0;locked=1;connectable=0;" parent="606" vertex="1">
                    <mxGeometry x="59.999999999999545" y="2665" width="30" height="30" as="geometry"/>
                </mxCell>
                <mxCell id="613" value="Raspberry Pi" style="swimlane;startSize=20;html=1;strokeColor=#808080;aspect=fixed;movable=0;resizable=0;rotatable=0;deletable=0;editable=0;locked=1;connectable=0;container=0;" parent="605" vertex="1">
                    <mxGeometry x="360" y="20" width="360" height="2780" as="geometry"/>
                </mxCell>
                <mxCell id="614" value="&lt;span style=&quot;color: rgb(0, 0, 0);&quot;&gt;Running the program&lt;/span&gt;" style="rounded=1;whiteSpace=wrap;html=1;movable=0;resizable=0;rotatable=0;deletable=0;editable=0;locked=1;connectable=0;fillColor=#dae8fc;strokeColor=#6c8ebf;" parent="613" vertex="1">
                    <mxGeometry x="195" y="1070" width="140" height="60" as="geometry"/>
                </mxCell>
                <mxCell id="615" value="" style="edgeStyle=none;html=1;movable=0;resizable=0;rotatable=0;deletable=0;editable=0;locked=1;connectable=0;" parent="613" source="616" target="614" edge="1">
                    <mxGeometry relative="1" as="geometry"/>
                </mxCell>
                <mxCell id="616" value="G" style="ellipse;html=1;fontStyle=1;movable=0;resizable=0;rotatable=0;deletable=0;editable=0;locked=1;connectable=0;" parent="613" vertex="1">
                    <mxGeometry x="59.999999999999545" y="1085" width="30" height="30" as="geometry"/>
                </mxCell>
                <mxCell id="617" value="Udp receive thread 1" style="shape=umlFrame;whiteSpace=wrap;html=1;pointerEvents=0;recursiveResize=0;container=1;collapsible=0;width=160;movable=0;resizable=0;rotatable=0;deletable=0;editable=0;locked=1;connectable=0;" parent="613" vertex="1">
                    <mxGeometry x="40" y="1155" width="290" height="385" as="geometry"/>
                </mxCell>
                <mxCell id="618" value="&lt;div style=&quot;text-align: left;&quot;&gt;&lt;span style=&quot;background-color: transparent;&quot;&gt;&lt;span style=&quot;white-space: pre;&quot;&gt;&#x9;&lt;/span&gt;&lt;b&gt;Receive data&lt;br&gt;&lt;/b&gt;&lt;/span&gt;&lt;/div&gt;&lt;div style=&quot;text-align: left;&quot;&gt;&lt;span style=&quot;background-color: transparent;&quot;&gt;double Copy Pos[3]&amp;nbsp;&lt;/span&gt;&lt;/div&gt;&lt;div style=&quot;text-align: left;&quot;&gt;double Copy Vel[3]&lt;/div&gt;&lt;div style=&quot;text-align: left;&quot;&gt;double Master Pos[3]&lt;/div&gt;&lt;div style=&quot;text-align: left;&quot;&gt;&lt;span style=&quot;color: rgb(63, 63, 63);&quot;&gt;double Master Vel[3]&lt;/span&gt;&lt;/div&gt;&lt;div style=&quot;text-align: left;&quot;&gt;long Cycle Time&lt;br&gt;&lt;/div&gt;" style="shape=mxgraph.sysml.accEvent;flipH=1;whiteSpace=wrap;align=center;html=1;movable=0;resizable=0;rotatable=0;deletable=0;editable=0;locked=1;connectable=0;fillColor=#d5e8d4;strokeColor=#82b366;" parent="617" vertex="1">
                    <mxGeometry x="59.999999999999545" y="45" width="160" height="100" as="geometry"/>
                </mxCell>
                <mxCell id="619" style="edgeStyle=none;html=1;entryX=0.5;entryY=0;entryDx=0;entryDy=0;movable=0;resizable=0;rotatable=0;deletable=0;editable=0;locked=1;connectable=0;" parent="617" source="620" target="622" edge="1">
                    <mxGeometry relative="1" as="geometry"/>
                </mxCell>
                <mxCell id="620" value="&amp;nbsp;double Copy Pos[3] &lt;span style=&quot;white-space: pre;&quot;&gt;&#x9;&lt;/span&gt;→ 24bytes&lt;div&gt;&lt;span style=&quot;color: rgb(0, 0, 0);&quot;&gt;&amp;nbsp;double Copy Vel[3] &lt;span style=&quot;white-space: pre;&quot;&gt;&#x9;&lt;/span&gt;→ 24bytes&lt;/span&gt;&lt;font color=&quot;#000000&quot;&gt;&lt;br&gt;&lt;/font&gt;&lt;div&gt;&amp;nbsp;double Master Pos[3] &lt;span style=&quot;white-space: pre;&quot;&gt;&#x9;&lt;/span&gt;→ 24 bytes&lt;/div&gt;&lt;div&gt;&lt;span style=&quot;color: rgb(63, 63, 63);&quot;&gt;&amp;nbsp;double Master Vel[3] &lt;span style=&quot;white-space: pre;&quot;&gt;&#x9;&lt;/span&gt;→ 24 bytes&lt;/span&gt;&lt;/div&gt;&lt;div&gt;&amp;nbsp;long Send Time &lt;span style=&quot;white-space: pre;&quot;&gt;&#x9;&lt;/span&gt;&lt;span style=&quot;white-space: pre;&quot;&gt;&#x9;&lt;/span&gt;→ 8bytes&lt;/div&gt;&lt;/div&gt;&lt;div style=&quot;text-align: center;&quot;&gt;&lt;b style=&quot;color: rgb(63, 63, 63);&quot;&gt;Send data&lt;/b&gt;&lt;/div&gt;" style="shape=mxgraph.sysml.sendSigAct;whiteSpace=wrap;align=left;html=1;movable=0;resizable=0;rotatable=0;deletable=0;editable=0;locked=1;connectable=0;fillColor=#d5e8d4;strokeColor=#82b366;" parent="617" vertex="1">
                    <mxGeometry x="29.999999999999545" y="175" width="220" height="90" as="geometry"/>
                </mxCell>
                <mxCell id="621" style="edgeStyle=none;html=1;entryX=0.5;entryY=0;entryDx=0;entryDy=0;entryPerimeter=0;movable=0;resizable=0;rotatable=0;deletable=0;editable=0;locked=1;connectable=0;" parent="617" source="618" target="620" edge="1">
                    <mxGeometry relative="1" as="geometry"/>
                </mxCell>
                <mxCell id="622" value="Save to CSV" style="rounded=0;whiteSpace=wrap;html=1;movable=0;resizable=0;rotatable=0;deletable=0;editable=0;locked=1;connectable=0;fillColor=#dae8fc;strokeColor=#6c8ebf;" parent="617" vertex="1">
                    <mxGeometry x="65" y="305" width="150" height="60" as="geometry"/>
                </mxCell>
                <mxCell id="623" value="Udp receive thread 2" style="shape=umlFrame;whiteSpace=wrap;html=1;pointerEvents=0;recursiveResize=0;container=1;collapsible=0;width=160;movable=0;resizable=0;rotatable=0;deletable=0;editable=0;locked=1;connectable=0;" parent="613" vertex="1">
                    <mxGeometry x="40" y="1710" width="280" height="450" as="geometry"/>
                </mxCell>
                <mxCell id="624" value="&lt;div style=&quot;text-align: left;&quot;&gt;&lt;br&gt;&lt;/div&gt;" style="shape=mxgraph.sysml.accEvent;flipH=1;whiteSpace=wrap;align=center;html=1;movable=0;resizable=0;rotatable=0;deletable=0;editable=0;locked=1;connectable=0;fillColor=#d5e8d4;strokeColor=#82b366;" parent="623" vertex="1">
                    <mxGeometry x="60" y="40" width="180" height="140" as="geometry"/>
                </mxCell>
                <mxCell id="625" value="&lt;div style=&quot;text-align: center;&quot;&gt;&lt;span style=&quot;background-color: transparent;&quot;&gt;&lt;span style=&quot;white-space: pre;&quot;&gt;&#x9;&lt;/span&gt;&lt;b&gt;Receive data&lt;br&gt;&lt;/b&gt;&lt;/span&gt;&lt;/div&gt;&lt;div style=&quot;&quot;&gt;&lt;span style=&quot;background-color: transparent; color: rgb(0, 0, 0);&quot;&gt;&amp;nbsp;double Pos Err[3]&amp;nbsp;&lt;/span&gt;&lt;/div&gt;&lt;div style=&quot;&quot;&gt;&lt;span style=&quot;color: rgb(0, 0, 0);&quot;&gt;&amp;nbsp;double Control Vel[3]&amp;nbsp;&lt;/span&gt;&lt;/div&gt;&lt;div style=&quot;&quot;&gt;&lt;span style=&quot;color: rgb(0, 0, 0);&quot;&gt;&lt;div&gt;&lt;span style=&quot;background-color: transparent; color: rgb(0, 0, 0);&quot;&gt;&amp;nbsp;double Wheel Vel[3]&amp;nbsp;&lt;/span&gt;&lt;/div&gt;&lt;div&gt;&lt;span style=&quot;color: rgb(0, 0, 0);&quot;&gt;&amp;nbsp;double Mortor Vol[3]&amp;nbsp;&lt;/span&gt;&lt;/div&gt;&lt;div&gt;&lt;span style=&quot;background-color: transparent;&quot;&gt;&amp;nbsp;&lt;/span&gt;&lt;span style=&quot;background-color: transparent; color: rgb(0, 0, 0);&quot;&gt;double Actual Force[2]&lt;/span&gt;&lt;span style=&quot;background-color: transparent; color: rgb(0, 0, 0);&quot;&gt;&amp;nbsp;&lt;/span&gt;&lt;/div&gt;&lt;/span&gt;&lt;/div&gt;&lt;div style=&quot;&quot;&gt;&lt;span style=&quot;color: rgb(0, 0, 0);&quot;&gt;&amp;nbsp;double Virtual Force[6]&amp;nbsp;&lt;/span&gt;&lt;br&gt;&lt;div&gt;&amp;nbsp;double Ideal Force[6]&amp;nbsp;&lt;/div&gt;&lt;/div&gt;&lt;div style=&quot;&quot;&gt;&lt;span style=&quot;background-color: transparent;&quot;&gt;&amp;nbsp;long Send Time&lt;/span&gt;&lt;span style=&quot;background-color: transparent;&quot;&gt;&amp;nbsp;&lt;/span&gt;&lt;/div&gt;" style="text;html=1;align=left;verticalAlign=middle;whiteSpace=wrap;rounded=0;movable=0;resizable=0;rotatable=0;deletable=0;editable=0;locked=1;connectable=0;" parent="623" vertex="1">
                    <mxGeometry x="60" y="40" width="180" height="140" as="geometry"/>
                </mxCell>
                <mxCell id="626" value="" style="edgeStyle=none;html=1;movable=0;resizable=0;rotatable=0;deletable=0;editable=0;locked=1;connectable=0;" parent="623" source="627" target="629" edge="1">
                    <mxGeometry relative="1" as="geometry"/>
                </mxCell>
                <mxCell id="627" value="&amp;nbsp;double Actual Force[2]&amp;nbsp;&lt;span style=&quot;white-space: pre;&quot;&gt;&#x9;&lt;/span&gt;→ 16bytes&lt;div&gt;&lt;span style=&quot;color: rgb(0, 0, 0);&quot;&gt;&amp;nbsp;double Virtual Force[6]&amp;nbsp;&lt;span style=&quot;white-space: pre;&quot;&gt;&#x9;&lt;/span&gt;→ 16bytes&lt;/span&gt;&lt;font&gt;&lt;br&gt;&lt;/font&gt;&lt;div style=&quot;color: rgb(63, 63, 63);&quot;&gt;&amp;nbsp;double Ideal Force[6]&amp;nbsp;&lt;span style=&quot;white-space: pre;&quot;&gt;&#x9;&lt;/span&gt;→ 16 bytes&lt;/div&gt;&lt;/div&gt;&lt;div&gt;&amp;nbsp;double Time Delay&lt;span style=&quot;white-space: pre;&quot;&gt;&#x9;&lt;/span&gt;&lt;span style=&quot;white-space: pre;&quot;&gt;&#x9;&lt;/span&gt;→ 8bytes&lt;div&gt;&lt;div&gt;&lt;div&gt;&amp;nbsp;long Send Time &lt;span style=&quot;white-space: pre;&quot;&gt;&#x9;&lt;/span&gt;&lt;span style=&quot;white-space: pre;&quot;&gt;&#x9;&lt;/span&gt;→ 8bytes&lt;/div&gt;&lt;/div&gt;&lt;div style=&quot;color: rgb(63, 63, 63);&quot;&gt;&amp;nbsp;long Receive Time&amp;nbsp;&lt;span style=&quot;white-space: pre;&quot;&gt;&#x9;&lt;/span&gt;→ 8bytes&lt;/div&gt;&lt;div style=&quot;text-align: center;&quot;&gt;&lt;b style=&quot;color: rgb(63, 63, 63);&quot;&gt;Send data&lt;/b&gt;&lt;/div&gt;&lt;/div&gt;&lt;/div&gt;" style="shape=mxgraph.sysml.sendSigAct;whiteSpace=wrap;align=left;html=1;movable=0;resizable=0;rotatable=0;deletable=0;editable=0;locked=1;connectable=0;fillColor=#d5e8d4;strokeColor=#82b366;" parent="623" vertex="1">
                    <mxGeometry x="40" y="225" width="220" height="110" as="geometry"/>
                </mxCell>
                <mxCell id="628" style="edgeStyle=none;html=1;entryX=0.5;entryY=0;entryDx=0;entryDy=0;entryPerimeter=0;movable=0;resizable=0;rotatable=0;deletable=0;editable=0;locked=1;connectable=0;" parent="623" source="625" target="627" edge="1">
                    <mxGeometry relative="1" as="geometry"/>
                </mxCell>
                <mxCell id="629" value="Save to CSV" style="rounded=0;whiteSpace=wrap;html=1;movable=0;resizable=0;rotatable=0;deletable=0;editable=0;locked=1;connectable=0;fillColor=#dae8fc;strokeColor=#6c8ebf;" parent="623" vertex="1">
                    <mxGeometry x="75" y="370" width="150" height="60" as="geometry"/>
                </mxCell>
                <mxCell id="630" value="&lt;span style=&quot;color: rgb(0, 0, 0);&quot;&gt;End the program&lt;/span&gt;" style="rounded=1;whiteSpace=wrap;html=1;movable=0;resizable=0;rotatable=0;deletable=0;editable=0;locked=1;connectable=0;fillColor=#dae8fc;strokeColor=#6c8ebf;" parent="613" vertex="1">
                    <mxGeometry x="206" y="2350" width="140" height="60" as="geometry"/>
                </mxCell>
                <mxCell id="631" value="&lt;span style=&quot;color: rgb(0, 0, 0);&quot;&gt;Copy Robot&lt;/span&gt;" style="swimlane;startSize=20;html=1;aspect=fixed;movable=0;resizable=0;rotatable=0;deletable=0;editable=0;locked=1;connectable=0;container=0;strokeColor=#808080;" parent="605" vertex="1">
                    <mxGeometry x="720" y="20" width="389.99999999999955" height="2780" as="geometry"/>
                </mxCell>
                <mxCell id="632" value="&lt;span style=&quot;color: rgb(0, 0, 0);&quot;&gt;Start the program&lt;/span&gt;" style="rounded=1;whiteSpace=wrap;html=1;movable=0;resizable=0;rotatable=0;deletable=0;editable=0;locked=1;connectable=0;fillColor=#dae8fc;strokeColor=#6c8ebf;" parent="631" vertex="1">
                    <mxGeometry x="225" y="1430" width="140" height="60" as="geometry"/>
                </mxCell>
                <mxCell id="633" value="" style="edgeStyle=none;html=1;movable=0;resizable=0;rotatable=0;deletable=0;editable=0;locked=1;connectable=0;" parent="631" source="634" target="632" edge="1">
                    <mxGeometry relative="1" as="geometry"/>
                </mxCell>
                <mxCell id="634" value="H" style="ellipse;html=1;fontStyle=1;movable=0;resizable=0;rotatable=0;deletable=0;editable=0;locked=1;connectable=0;" parent="631" vertex="1">
                    <mxGeometry x="89.99999999999955" y="1445" width="30" height="30" as="geometry"/>
                </mxCell>
                <mxCell id="635" value="Udp receive thread 1" style="shape=umlFrame;whiteSpace=wrap;html=1;pointerEvents=0;recursiveResize=0;container=1;collapsible=0;width=160;movable=0;resizable=0;rotatable=0;deletable=0;editable=0;locked=1;connectable=0;" parent="631" vertex="1">
                    <mxGeometry x="40" y="1530" width="280" height="170" as="geometry"/>
                </mxCell>
                <mxCell id="636" value="&lt;div style=&quot;&quot;&gt;&lt;b style=&quot;color: rgb(63, 63, 63);&quot;&gt;Receive data from B&lt;/b&gt;&lt;/div&gt;&lt;div style=&quot;text-align: left;&quot;&gt;&lt;span style=&quot;background-color: transparent;&quot;&gt;double Copy Pos[3]&amp;nbsp;&lt;/span&gt;&lt;/div&gt;&lt;div style=&quot;text-align: left;&quot;&gt;double Copy Vel[3]&lt;/div&gt;&lt;div style=&quot;text-align: left;&quot;&gt;double Master Pos[3]&lt;/div&gt;&lt;div style=&quot;text-align: left;&quot;&gt;&lt;span style=&quot;color: rgb(63, 63, 63);&quot;&gt;double Master Vel[3]&lt;/span&gt;&lt;/div&gt;&lt;div style=&quot;text-align: left;&quot;&gt;long&amp;nbsp;&lt;span style=&quot;color: rgb(63, 63, 63); background-color: transparent;&quot;&gt;Send Time&lt;/span&gt;&lt;br&gt;&lt;/div&gt;" style="shape=mxgraph.sysml.accEvent;flipH=1;whiteSpace=wrap;align=center;html=1;movable=0;resizable=0;rotatable=0;deletable=0;editable=0;locked=1;connectable=0;fillColor=#d5e8d4;strokeColor=#82b366;" parent="635" vertex="1">
                    <mxGeometry x="50" y="50" width="167.5" height="90" as="geometry"/>
                </mxCell>
                <mxCell id="637" value="Udp receive thread 2" style="shape=umlFrame;whiteSpace=wrap;html=1;pointerEvents=0;recursiveResize=0;container=1;collapsible=0;width=160;movable=0;resizable=0;rotatable=0;deletable=0;editable=0;locked=1;connectable=0;" parent="631" vertex="1">
                    <mxGeometry x="40" y="1710" width="280" height="170" as="geometry"/>
                </mxCell>
                <mxCell id="638" value="&lt;div style=&quot;&quot;&gt;&lt;b style=&quot;color: rgb(63, 63, 63);&quot;&gt;Receive data from A&lt;/b&gt;&lt;/div&gt;&lt;div style=&quot;text-align: left;&quot;&gt;&lt;span style=&quot;background-color: transparent;&quot;&gt;double Copy Pos[3]&amp;nbsp;&lt;/span&gt;&lt;/div&gt;&lt;div style=&quot;text-align: left;&quot;&gt;double Copy Vel[3]&lt;/div&gt;&lt;div style=&quot;text-align: left;&quot;&gt;double Master Pos[3]&lt;/div&gt;&lt;div style=&quot;text-align: left;&quot;&gt;&lt;span style=&quot;color: rgb(63, 63, 63);&quot;&gt;double Master Vel[3]&lt;/span&gt;&lt;/div&gt;&lt;div style=&quot;text-align: left;&quot;&gt;&lt;span style=&quot;color: rgb(63, 63, 63);&quot;&gt;long Cycle Time&lt;/span&gt;&lt;/div&gt;" style="shape=mxgraph.sysml.accEvent;flipH=1;whiteSpace=wrap;align=center;html=1;movable=0;resizable=0;rotatable=0;deletable=0;editable=0;locked=1;connectable=0;fillColor=#d5e8d4;strokeColor=#82b366;" parent="637" vertex="1">
                    <mxGeometry x="50" y="50" width="167.5" height="90" as="geometry"/>
                </mxCell>
                <mxCell id="639" value="main thread" style="shape=umlFrame;whiteSpace=wrap;html=1;pointerEvents=0;recursiveResize=0;container=1;collapsible=0;width=160;movable=0;resizable=0;rotatable=0;deletable=0;editable=0;locked=1;connectable=0;" parent="631" vertex="1">
                    <mxGeometry x="40" y="1890" width="280" height="280" as="geometry"/>
                </mxCell>
                <mxCell id="640" value="Control Robot&lt;br&gt;30Hz" style="rounded=0;whiteSpace=wrap;html=1;movable=0;resizable=0;rotatable=0;deletable=0;editable=0;locked=1;connectable=0;fillColor=#dae8fc;strokeColor=#6c8ebf;" parent="639" vertex="1">
                    <mxGeometry x="58.75" y="40" width="150" height="60" as="geometry"/>
                </mxCell>
                <mxCell id="641" value="&lt;div&gt;&lt;span style=&quot;background-color: transparent; color: rgb(0, 0, 0);&quot;&gt;&amp;nbsp;double Pos Err[3]&amp;nbsp;&lt;/span&gt;&lt;span style=&quot;background-color: transparent; white-space: pre;&quot;&gt;&#x9;&lt;/span&gt;&lt;span style=&quot;background-color: transparent; color: rgb(0, 0, 0);&quot;&gt;→ 24bytes&lt;/span&gt;&lt;span style=&quot;color: rgb(0, 0, 0);&quot;&gt;&amp;nbsp;&lt;/span&gt;&lt;/div&gt;&lt;div&gt;&lt;span style=&quot;color: rgb(0, 0, 0);&quot;&gt;&amp;nbsp;double Control Vel[3]&amp;nbsp;&lt;/span&gt;&lt;span style=&quot;white-space: pre;&quot;&gt;&#x9;&lt;/span&gt;&lt;span style=&quot;color: rgb(0, 0, 0);&quot;&gt;→ 24bytes&lt;/span&gt;&lt;/div&gt;&lt;div&gt;&lt;span style=&quot;color: rgb(0, 0, 0);&quot;&gt;&lt;div&gt;&lt;span style=&quot;background-color: transparent; color: rgb(0, 0, 0);&quot;&gt;&amp;nbsp;double Wheel Vel[3]&amp;nbsp;&lt;/span&gt;&lt;span style=&quot;background-color: transparent; white-space: pre;&quot;&gt;&#x9;&lt;/span&gt;&lt;span style=&quot;background-color: transparent; color: rgb(0, 0, 0);&quot;&gt;→ 24bytes&lt;/span&gt;&lt;span style=&quot;color: rgb(0, 0, 0);&quot;&gt;&amp;nbsp;&lt;/span&gt;&lt;/div&gt;&lt;div&gt;&lt;span style=&quot;color: rgb(0, 0, 0);&quot;&gt;&amp;nbsp;double Mortor Vol[3]&amp;nbsp;&lt;/span&gt;&lt;span style=&quot;white-space: pre;&quot;&gt;&#x9;&lt;/span&gt;&lt;span style=&quot;color: rgb(0, 0, 0);&quot;&gt;→ 24bytes&lt;/span&gt;&lt;/div&gt;&lt;/span&gt;&lt;/div&gt;&amp;nbsp;double Actual Force[2] &lt;span style=&quot;white-space: pre;&quot;&gt;&#x9;&lt;/span&gt;→ 16bytes&lt;div&gt;&lt;span style=&quot;color: rgb(0, 0, 0);&quot;&gt;&amp;nbsp;double Virtual Force[6] &lt;span style=&quot;white-space: pre;&quot;&gt;&#x9;&lt;/span&gt;→ 16bytes&lt;/span&gt;&lt;font color=&quot;#000000&quot;&gt;&lt;br&gt;&lt;/font&gt;&lt;div&gt;&amp;nbsp;double Ideal Force[6] &lt;span style=&quot;white-space: pre;&quot;&gt;&#x9;&lt;/span&gt;→ 16 bytes&lt;/div&gt;&lt;div&gt;&amp;nbsp;long Send Time &lt;span style=&quot;white-space: pre;&quot;&gt;&#x9;&lt;/span&gt;&lt;span style=&quot;white-space: pre;&quot;&gt;&#x9;&lt;/span&gt;→ 8bytes&lt;/div&gt;&lt;/div&gt;&lt;div style=&quot;text-align: center;&quot;&gt;&lt;b style=&quot;color: rgb(63, 63, 63);&quot;&gt;Send data&lt;/b&gt;&lt;/div&gt;" style="shape=mxgraph.sysml.sendSigAct;whiteSpace=wrap;align=left;html=1;movable=0;resizable=0;rotatable=0;deletable=0;editable=0;locked=1;connectable=0;fillColor=#d5e8d4;strokeColor=#82b366;" parent="639" vertex="1">
                    <mxGeometry x="23.75" y="128" width="220" height="140" as="geometry"/>
                </mxCell>
                <mxCell id="642" style="edgeStyle=orthogonalEdgeStyle;html=1;entryX=0.5;entryY=0;entryDx=0;entryDy=0;entryPerimeter=0;movable=0;resizable=0;rotatable=0;deletable=0;editable=0;locked=1;connectable=0;" parent="639" source="640" target="641" edge="1">
                    <mxGeometry relative="1" as="geometry"/>
                </mxCell>
                <mxCell id="643" style="edgeStyle=orthogonalEdgeStyle;html=1;entryX=1.013;entryY=0.483;entryDx=0;entryDy=0;entryPerimeter=0;movable=0;resizable=0;rotatable=0;deletable=0;editable=0;locked=1;connectable=0;" parent="631" source="632" target="635" edge="1">
                    <mxGeometry relative="1" as="geometry">
                        <Array as="points">
                            <mxPoint x="295" y="1510"/>
                            <mxPoint x="360" y="1510"/>
                            <mxPoint x="360" y="1612"/>
                        </Array>
                    </mxGeometry>
                </mxCell>
                <mxCell id="644" style="edgeStyle=orthogonalEdgeStyle;html=1;entryX=1.002;entryY=0.545;entryDx=0;entryDy=0;entryPerimeter=0;movable=0;resizable=0;rotatable=0;deletable=0;editable=0;locked=1;connectable=0;" parent="631" source="632" target="637" edge="1">
                    <mxGeometry relative="1" as="geometry">
                        <Array as="points">
                            <mxPoint x="295" y="1510"/>
                            <mxPoint x="360" y="1510"/>
                            <mxPoint x="360" y="1803"/>
                        </Array>
                    </mxGeometry>
                </mxCell>
                <mxCell id="645" style="edgeStyle=orthogonalEdgeStyle;html=1;entryX=1.002;entryY=0.549;entryDx=0;entryDy=0;entryPerimeter=0;movable=0;resizable=0;rotatable=0;deletable=0;editable=0;locked=1;connectable=0;" parent="631" source="632" target="639" edge="1">
                    <mxGeometry relative="1" as="geometry">
                        <Array as="points">
                            <mxPoint x="295" y="1510"/>
                            <mxPoint x="360" y="1510"/>
                            <mxPoint x="360" y="2044"/>
                        </Array>
                    </mxGeometry>
                </mxCell>
                <mxCell id="646" style="edgeStyle=orthogonalEdgeStyle;html=1;entryX=1;entryY=0.5;entryDx=0;entryDy=0;movable=0;resizable=0;rotatable=0;deletable=0;editable=0;locked=1;connectable=0;" parent="631" source="636" target="640" edge="1">
                    <mxGeometry relative="1" as="geometry">
                        <Array as="points">
                            <mxPoint x="174" y="1680"/>
                            <mxPoint x="290" y="1680"/>
                            <mxPoint x="290" y="1960"/>
                        </Array>
                    </mxGeometry>
                </mxCell>
                <mxCell id="647" style="edgeStyle=orthogonalEdgeStyle;html=1;entryX=1;entryY=0.5;entryDx=0;entryDy=0;movable=0;resizable=0;rotatable=0;deletable=0;editable=0;locked=1;connectable=0;" parent="631" source="638" target="640" edge="1">
                    <mxGeometry relative="1" as="geometry">
                        <Array as="points">
                            <mxPoint x="174" y="1860"/>
                            <mxPoint x="267" y="1860"/>
                            <mxPoint x="267" y="1960"/>
                        </Array>
                    </mxGeometry>
                </mxCell>
                <mxCell id="648" value="Save the CSV file to the file server" style="rounded=1;whiteSpace=wrap;html=1;movable=0;resizable=0;rotatable=0;deletable=0;editable=0;locked=1;connectable=0;fillColor=#dae8fc;strokeColor=#6c8ebf;" parent="631" vertex="1">
                    <mxGeometry x="-155" y="2270" width="140" height="60" as="geometry"/>
                </mxCell>
                <mxCell id="649" value="" style="edgeStyle=none;html=1;movable=0;resizable=0;rotatable=0;deletable=0;editable=0;locked=1;connectable=0;" parent="631" source="650" target="648" edge="1">
                    <mxGeometry relative="1" as="geometry"/>
                </mxCell>
                <mxCell id="650" value="J" style="ellipse;html=1;fontStyle=1;movable=0;resizable=0;rotatable=0;deletable=0;editable=0;locked=1;connectable=0;" parent="631" vertex="1">
                    <mxGeometry x="-290.00000000000045" y="2285" width="30" height="30" as="geometry"/>
                </mxCell>
                <mxCell id="651" value="&lt;span style=&quot;color: rgb(0, 0, 0);&quot;&gt;End the program&lt;/span&gt;" style="rounded=1;whiteSpace=wrap;html=1;movable=0;resizable=0;rotatable=0;deletable=0;editable=0;locked=1;connectable=0;fillColor=#dae8fc;strokeColor=#6c8ebf;" parent="631" vertex="1">
                    <mxGeometry x="225" y="2190" width="140" height="60" as="geometry"/>
                </mxCell>
                <mxCell id="652" value="" style="edgeStyle=none;html=1;movable=0;resizable=0;rotatable=0;deletable=0;editable=0;locked=1;connectable=0;" parent="631" source="653" target="651" edge="1">
                    <mxGeometry relative="1" as="geometry"/>
                </mxCell>
                <mxCell id="653" value="I" style="ellipse;html=1;fontStyle=1;movable=0;resizable=0;rotatable=0;deletable=0;editable=0;locked=1;connectable=0;" parent="631" vertex="1">
                    <mxGeometry x="89.99999999999955" y="2205" width="30" height="30" as="geometry"/>
                </mxCell>
                <mxCell id="654" style="html=1;strokeColor=#82b366;fillColor=#d5e8d4;strokeWidth=3;movable=0;resizable=0;rotatable=0;deletable=0;editable=0;locked=1;connectable=0;exitX=0;exitY=0.5;exitDx=0;exitDy=0;exitPerimeter=0;entryX=0.778;entryY=0.5;entryDx=0;entryDy=0;entryPerimeter=0;edgeStyle=orthogonalEdgeStyle;" parent="605" source="641" target="625" edge="1">
                    <mxGeometry relative="1" as="geometry">
                        <mxPoint x="450" y="2195" as="sourcePoint"/>
                        <mxPoint x="-125" y="2040" as="targetPoint"/>
                        <Array as="points">
                            <mxPoint x="700" y="2108"/>
                            <mxPoint x="700" y="1840"/>
                        </Array>
                    </mxGeometry>
                </mxCell>
                <mxCell id="655" value="" style="edgeStyle=none;html=1;movable=0;resizable=0;rotatable=0;deletable=0;editable=0;locked=1;connectable=0;" parent="605" source="648" target="630" edge="1">
                    <mxGeometry relative="1" as="geometry"/>
                </mxCell>
                <mxCell id="656" style="edgeStyle=orthogonalEdgeStyle;html=1;entryX=1;entryY=0.5;entryDx=0;entryDy=0;entryPerimeter=0;exitX=1;exitY=0.5;exitDx=0;exitDy=0;exitPerimeter=0;fillColor=#d5e8d4;strokeColor=#82b366;strokeWidth=3;movable=1;resizable=1;rotatable=1;deletable=1;editable=1;locked=0;connectable=1;" parent="1" source="267" target="638" edge="1">
                    <mxGeometry relative="1" as="geometry">
                        <Array as="points">
                            <mxPoint x="780" y="1475"/>
                            <mxPoint x="780" y="1730"/>
                            <mxPoint x="1550" y="1730"/>
                            <mxPoint x="1550" y="1905"/>
                        </Array>
                    </mxGeometry>
                </mxCell>
                <mxCell id="658" style="edgeStyle=orthogonalEdgeStyle;html=1;entryX=0;entryY=0.5;entryDx=27;entryDy=0;entryPerimeter=0;strokeWidth=3;fillColor=#d5e8d4;strokeColor=#82b366;movable=1;resizable=1;rotatable=1;deletable=1;editable=1;locked=0;connectable=1;" parent="1" source="620" target="300" edge="1">
                    <mxGeometry relative="1" as="geometry">
                        <Array as="points">
                            <mxPoint x="1040" y="1475"/>
                            <mxPoint x="1040" y="1905"/>
                        </Array>
                    </mxGeometry>
                </mxCell>
                <mxCell id="266" style="edgeStyle=orthogonalEdgeStyle;html=1;strokeColor=#82b366;fillColor=#d5e8d4;strokeWidth=3;movable=0;resizable=0;rotatable=0;deletable=0;editable=0;locked=1;connectable=0;entryX=1;entryY=0.5;entryDx=0;entryDy=0;entryPerimeter=0;exitX=0;exitY=0.5;exitDx=0;exitDy=0;exitPerimeter=0;" parent="1" target="263" edge="1" source="231">
                    <mxGeometry relative="1" as="geometry">
                        <mxPoint x="-267.50000000000045" y="864.47" as="sourcePoint"/>
                        <mxPoint x="-427.50000000000045" y="864.47" as="targetPoint"/>
                        <Array as="points">
                            <mxPoint x="-310" y="815"/>
                            <mxPoint x="-310" y="1350"/>
                        </Array>
                    </mxGeometry>
                </mxCell>
                <mxCell id="700" style="edgeStyle=orthogonalEdgeStyle;html=1;entryX=0.75;entryY=0;entryDx=0;entryDy=0;movable=0;resizable=0;rotatable=0;deletable=0;editable=0;locked=1;connectable=0;" edge="1" parent="1" source="218" target="169">
                    <mxGeometry relative="1" as="geometry">
                        <Array as="points">
                            <mxPoint x="-810" y="1040"/>
                            <mxPoint x="-810" y="350"/>
                            <mxPoint x="-1025" y="350"/>
                        </Array>
                    </mxGeometry>
                </mxCell>
                <mxCell id="609" style="edgeStyle=orthogonalEdgeStyle;html=1;strokeColor=#82b366;fillColor=#d5e8d4;strokeWidth=3;movable=0;resizable=0;rotatable=0;deletable=0;editable=0;locked=1;connectable=0;entryX=1;entryY=0.5;entryDx=0;entryDy=0;entryPerimeter=0;exitX=0;exitY=0.5;exitDx=0;exitDy=0;exitPerimeter=0;" parent="1" target="618" edge="1" source="599">
                    <mxGeometry relative="1" as="geometry">
                        <mxPoint x="912.4999999999995" y="864.47" as="sourcePoint"/>
                        <mxPoint x="752.4999999999995" y="864.47" as="targetPoint"/>
                        <Array as="points">
                            <mxPoint x="870" y="815"/>
                            <mxPoint x="870" y="1350"/>
                        </Array>
                    </mxGeometry>
                </mxCell>
                <mxCell id="753" value="&lt;font style=&quot;font-size: 20px;&quot;&gt;&lt;b&gt;Basically, you only need to look at the User flow to get it working.&lt;/b&gt;&lt;/font&gt;" style="text;html=1;align=center;verticalAlign=middle;resizable=0;points=[];autosize=1;strokeColor=none;fillColor=none;" vertex="1" parent="1">
                    <mxGeometry x="-1125" y="20" width="650" height="40" as="geometry"/>
                </mxCell>
                <mxCell id="754" value="&lt;span style=&quot;font-size: 20px;&quot;&gt;&lt;b&gt;system flow&lt;/b&gt;&lt;/span&gt;" style="text;html=1;align=center;verticalAlign=middle;resizable=0;points=[];autosize=1;strokeColor=none;fillColor=none;" vertex="1" parent="1">
                    <mxGeometry x="-80" y="20" width="140" height="40" as="geometry"/>
                </mxCell>
                <mxCell id="755" value="" style="endArrow=classic;html=1;" edge="1" parent="1">
                    <mxGeometry width="50" height="50" relative="1" as="geometry">
                        <mxPoint x="-160" y="40" as="sourcePoint"/>
                        <mxPoint x="-95" y="39.47" as="targetPoint"/>
                    </mxGeometry>
                </mxCell>
                <mxCell id="756" value="&lt;span style=&quot;font-size: 20px;&quot;&gt;&lt;b&gt;UDP flow&lt;/b&gt;&lt;/span&gt;" style="text;html=1;align=center;verticalAlign=middle;resizable=0;points=[];autosize=1;strokeColor=none;fillColor=none;" vertex="1" parent="1">
                    <mxGeometry x="215" y="20" width="110" height="40" as="geometry"/>
                </mxCell>
                <mxCell id="757" value="" style="endArrow=classic;html=1;fillColor=#d5e8d4;strokeColor=#82b366;strokeWidth=4;" edge="1" parent="1">
                    <mxGeometry width="50" height="50" relative="1" as="geometry">
                        <mxPoint x="120" y="40" as="sourcePoint"/>
                        <mxPoint x="185" y="39.47" as="targetPoint"/>
                    </mxGeometry>
                </mxCell>
                <mxCell id="507" value="Connect UDP" style="swimlane;whiteSpace=wrap;html=1;strokeColor=#999999;strokeWidth=3;swimlaneFillColor=default;movable=1;resizable=1;rotatable=1;deletable=1;editable=1;locked=0;connectable=1;startSize=23;" parent="1" vertex="1" collapsed="1">
                    <mxGeometry x="-340" y="735" width="140" height="30" as="geometry">
                        <mxRectangle x="480" y="2640" width="610" height="390" as="alternateBounds"/>
                    </mxGeometry>
                </mxCell>
                <mxCell id="508" value="" style="childLayout=tableLayout;recursiveResize=0;shadow=0;fillColor=none;strokeColor=#999999;strokeWidth=2;" parent="507" vertex="1">
                    <mxGeometry x="10" y="70" width="590" height="310" as="geometry"/>
                </mxCell>
                <mxCell id="509" value="" style="shape=tableRow;horizontal=0;startSize=0;swimlaneHead=0;swimlaneBody=0;top=0;left=0;bottom=0;right=0;dropTarget=0;collapsible=0;recursiveResize=0;expand=0;fontStyle=0;fillColor=none;strokeColor=inherit;" parent="508" vertex="1">
                    <mxGeometry width="590" height="30" as="geometry"/>
                </mxCell>
                <mxCell id="510" style="connectable=0;recursiveResize=0;strokeColor=inherit;fillColor=none;align=center;whiteSpace=wrap;html=1;" parent="509" vertex="1">
                    <mxGeometry width="70" height="30" as="geometry">
                        <mxRectangle width="70" height="30" as="alternateBounds"/>
                    </mxGeometry>
                </mxCell>
                <mxCell id="511" value="Location A" style="connectable=0;recursiveResize=0;strokeColor=inherit;fillColor=none;align=center;whiteSpace=wrap;html=1;" parent="509" vertex="1">
                    <mxGeometry x="70" width="130" height="30" as="geometry">
                        <mxRectangle width="130" height="30" as="alternateBounds"/>
                    </mxGeometry>
                </mxCell>
                <mxCell id="512" value="Location B" style="connectable=0;recursiveResize=0;strokeColor=inherit;fillColor=none;align=center;whiteSpace=wrap;html=1;" parent="509" vertex="1">
                    <mxGeometry x="200" width="130" height="30" as="geometry">
                        <mxRectangle width="130" height="30" as="alternateBounds"/>
                    </mxGeometry>
                </mxCell>
                <mxCell id="513" value="Location C" style="connectable=0;recursiveResize=0;strokeColor=inherit;fillColor=none;align=center;whiteSpace=wrap;html=1;" parent="509" vertex="1">
                    <mxGeometry x="330" width="130" height="30" as="geometry">
                        <mxRectangle width="130" height="30" as="alternateBounds"/>
                    </mxGeometry>
                </mxCell>
                <mxCell id="514" value="Location D" style="connectable=0;recursiveResize=0;strokeColor=inherit;fillColor=none;align=center;whiteSpace=wrap;html=1;" parent="509" vertex="1">
                    <mxGeometry x="460" width="130" height="30" as="geometry">
                        <mxRectangle width="130" height="30" as="alternateBounds"/>
                    </mxGeometry>
                </mxCell>
                <mxCell id="515" style="shape=tableRow;horizontal=0;startSize=0;swimlaneHead=0;swimlaneBody=0;top=0;left=0;bottom=0;right=0;dropTarget=0;collapsible=0;recursiveResize=0;expand=0;fontStyle=0;fillColor=none;strokeColor=#999999;" parent="508" vertex="1">
                    <mxGeometry y="30" width="590" height="70" as="geometry"/>
                </mxCell>
                <mxCell id="516" value="Location A" style="connectable=0;recursiveResize=0;strokeColor=inherit;fillColor=none;align=center;whiteSpace=wrap;html=1;" parent="515" vertex="1">
                    <mxGeometry width="70" height="70" as="geometry">
                        <mxRectangle width="70" height="70" as="alternateBounds"/>
                    </mxGeometry>
                </mxCell>
                <mxCell id="517" value="" style="connectable=0;recursiveResize=0;strokeColor=inherit;fillColor=none;align=center;whiteSpace=wrap;html=1;" parent="515" vertex="1">
                    <mxGeometry x="70" width="130" height="70" as="geometry">
                        <mxRectangle width="130" height="70" as="alternateBounds"/>
                    </mxGeometry>
                </mxCell>
                <mxCell id="518" value="raspi-b:192.168.11.202&lt;br&gt;cra1:192.168.11.11" style="connectable=0;recursiveResize=0;strokeColor=inherit;fillColor=none;align=center;whiteSpace=wrap;html=1;" parent="515" vertex="1">
                    <mxGeometry x="200" width="130" height="70" as="geometry">
                        <mxRectangle width="130" height="70" as="alternateBounds"/>
                    </mxGeometry>
                </mxCell>
                <mxCell id="519" value="raspi-c:192.168.11.203&lt;br&gt;cra2:192.168.11.12" style="connectable=0;recursiveResize=0;strokeColor=inherit;fillColor=none;align=center;whiteSpace=wrap;html=1;" parent="515" vertex="1">
                    <mxGeometry x="330" width="130" height="70" as="geometry">
                        <mxRectangle width="130" height="70" as="alternateBounds"/>
                    </mxGeometry>
                </mxCell>
                <mxCell id="520" value="raspi-d:192.168.139&lt;br&gt;cra3:192.168." style="connectable=0;recursiveResize=0;strokeColor=inherit;fillColor=none;align=center;whiteSpace=wrap;html=1;" parent="515" vertex="1">
                    <mxGeometry x="460" width="130" height="70" as="geometry">
                        <mxRectangle width="130" height="70" as="alternateBounds"/>
                    </mxGeometry>
                </mxCell>
                <mxCell id="521" style="shape=tableRow;horizontal=0;startSize=0;swimlaneHead=0;swimlaneBody=0;top=0;left=0;bottom=0;right=0;dropTarget=0;collapsible=0;recursiveResize=0;expand=0;fontStyle=0;fillColor=none;strokeColor=inherit;" parent="508" vertex="1">
                    <mxGeometry y="100" width="590" height="70" as="geometry"/>
                </mxCell>
                <mxCell id="522" value="Location B" style="connectable=0;recursiveResize=0;strokeColor=inherit;fillColor=none;align=center;whiteSpace=wrap;html=1;" parent="521" vertex="1">
                    <mxGeometry width="70" height="70" as="geometry">
                        <mxRectangle width="70" height="70" as="alternateBounds"/>
                    </mxGeometry>
                </mxCell>
                <mxCell id="523" value="raspi-a:192.168.11.201&lt;br&gt;crb1:192.168.11.21" style="connectable=0;recursiveResize=0;strokeColor=inherit;fillColor=none;align=center;whiteSpace=wrap;html=1;" parent="521" vertex="1">
                    <mxGeometry x="70" width="130" height="70" as="geometry">
                        <mxRectangle width="130" height="70" as="alternateBounds"/>
                    </mxGeometry>
                </mxCell>
                <mxCell id="524" value="" style="connectable=0;recursiveResize=0;strokeColor=inherit;fillColor=none;align=center;whiteSpace=wrap;html=1;" parent="521" vertex="1">
                    <mxGeometry x="200" width="130" height="70" as="geometry">
                        <mxRectangle width="130" height="70" as="alternateBounds"/>
                    </mxGeometry>
                </mxCell>
                <mxCell id="525" value="raspi-c:192.168.11.203&lt;br&gt;crb2:192.168.11.22" style="connectable=0;recursiveResize=0;strokeColor=inherit;fillColor=none;align=center;whiteSpace=wrap;html=1;" parent="521" vertex="1">
                    <mxGeometry x="330" width="130" height="70" as="geometry">
                        <mxRectangle width="130" height="70" as="alternateBounds"/>
                    </mxGeometry>
                </mxCell>
                <mxCell id="526" value="raspi-d:192.168.139&lt;br&gt;crb3:192.168." style="connectable=0;recursiveResize=0;strokeColor=inherit;fillColor=none;align=center;whiteSpace=wrap;html=1;" parent="521" vertex="1">
                    <mxGeometry x="460" width="130" height="70" as="geometry">
                        <mxRectangle width="130" height="70" as="alternateBounds"/>
                    </mxGeometry>
                </mxCell>
                <mxCell id="527" style="shape=tableRow;horizontal=0;startSize=0;swimlaneHead=0;swimlaneBody=0;top=0;left=0;bottom=0;right=0;dropTarget=0;collapsible=0;recursiveResize=0;expand=0;fontStyle=0;fillColor=none;strokeColor=inherit;" parent="508" vertex="1">
                    <mxGeometry y="170" width="590" height="70" as="geometry"/>
                </mxCell>
                <mxCell id="528" value="Location C" style="connectable=0;recursiveResize=0;strokeColor=inherit;fillColor=none;align=center;whiteSpace=wrap;html=1;" parent="527" vertex="1">
                    <mxGeometry width="70" height="70" as="geometry">
                        <mxRectangle width="70" height="70" as="alternateBounds"/>
                    </mxGeometry>
                </mxCell>
                <mxCell id="529" value="raspi-a:192.168.11.201&lt;br&gt;crc1:192.168.11.31" style="connectable=0;recursiveResize=0;strokeColor=inherit;fillColor=none;align=center;whiteSpace=wrap;html=1;" parent="527" vertex="1">
                    <mxGeometry x="70" width="130" height="70" as="geometry">
                        <mxRectangle width="130" height="70" as="alternateBounds"/>
                    </mxGeometry>
                </mxCell>
                <mxCell id="530" value="raspi-b:192.168.11.202&lt;div&gt;crc2:192.168.11.32&lt;br&gt;&lt;/div&gt;" style="connectable=0;recursiveResize=0;strokeColor=inherit;fillColor=none;align=center;whiteSpace=wrap;html=1;" parent="527" vertex="1">
                    <mxGeometry x="200" width="130" height="70" as="geometry">
                        <mxRectangle width="130" height="70" as="alternateBounds"/>
                    </mxGeometry>
                </mxCell>
                <mxCell id="531" style="connectable=0;recursiveResize=0;strokeColor=inherit;fillColor=none;align=center;whiteSpace=wrap;html=1;" parent="527" vertex="1">
                    <mxGeometry x="330" width="130" height="70" as="geometry">
                        <mxRectangle width="130" height="70" as="alternateBounds"/>
                    </mxGeometry>
                </mxCell>
                <mxCell id="532" style="connectable=0;recursiveResize=0;strokeColor=inherit;fillColor=none;align=center;whiteSpace=wrap;html=1;" parent="527" vertex="1">
                    <mxGeometry x="460" width="130" height="70" as="geometry">
                        <mxRectangle width="130" height="70" as="alternateBounds"/>
                    </mxGeometry>
                </mxCell>
                <mxCell id="533" style="shape=tableRow;horizontal=0;startSize=0;swimlaneHead=0;swimlaneBody=0;top=0;left=0;bottom=0;right=0;dropTarget=0;collapsible=0;recursiveResize=0;expand=0;fontStyle=0;fillColor=none;strokeColor=inherit;" parent="508" vertex="1">
                    <mxGeometry y="240" width="590" height="70" as="geometry"/>
                </mxCell>
                <mxCell id="534" value="&lt;span style=&quot;color: rgb(0, 0, 0); font-family: Helvetica; font-size: 12px; font-style: normal; font-variant-ligatures: normal; font-variant-caps: normal; font-weight: 400; letter-spacing: normal; orphans: 2; text-align: center; text-indent: 0px; text-transform: none; widows: 2; word-spacing: 0px; -webkit-text-stroke-width: 0px; white-space: normal; background-color: rgb(236, 236, 236); text-decoration-thickness: initial; text-decoration-style: initial; text-decoration-color: initial; float: none; display: inline !important;&quot;&gt;Location D&lt;/span&gt;" style="connectable=0;recursiveResize=0;strokeColor=inherit;fillColor=none;align=center;whiteSpace=wrap;html=1;" parent="533" vertex="1">
                    <mxGeometry width="70" height="70" as="geometry">
                        <mxRectangle width="70" height="70" as="alternateBounds"/>
                    </mxGeometry>
                </mxCell>
                <mxCell id="535" value="raspi-a:192.168.11.201&lt;br&gt;crc1:192.168.11.31" style="connectable=0;recursiveResize=0;strokeColor=inherit;fillColor=none;align=center;whiteSpace=wrap;html=1;" parent="533" vertex="1">
                    <mxGeometry x="70" width="130" height="70" as="geometry">
                        <mxRectangle width="130" height="70" as="alternateBounds"/>
                    </mxGeometry>
                </mxCell>
                <mxCell id="536" value="raspi-b:192.168.11.202&lt;br&gt;crc2:192.168.11.32" style="connectable=0;recursiveResize=0;strokeColor=inherit;fillColor=none;align=center;whiteSpace=wrap;html=1;" parent="533" vertex="1">
                    <mxGeometry x="200" width="130" height="70" as="geometry">
                        <mxRectangle width="130" height="70" as="alternateBounds"/>
                    </mxGeometry>
                </mxCell>
                <mxCell id="537" style="connectable=0;recursiveResize=0;strokeColor=inherit;fillColor=none;align=center;whiteSpace=wrap;html=1;" parent="533" vertex="1">
                    <mxGeometry x="330" width="130" height="70" as="geometry">
                        <mxRectangle width="130" height="70" as="alternateBounds"/>
                    </mxGeometry>
                </mxCell>
                <mxCell id="538" style="connectable=0;recursiveResize=0;strokeColor=inherit;fillColor=none;align=center;whiteSpace=wrap;html=1;" parent="533" vertex="1">
                    <mxGeometry x="460" width="130" height="70" as="geometry">
                        <mxRectangle width="130" height="70" as="alternateBounds"/>
                    </mxGeometry>
                </mxCell>
                <mxCell id="539" value="" style="endArrow=none;html=1;rounded=0;exitX=0;exitY=0;exitDx=0;exitDy=0;entryX=0.118;entryY=-0.003;entryDx=0;entryDy=0;entryPerimeter=0;strokeColor=#999999;" parent="508" source="509" target="515" edge="1">
                    <mxGeometry width="50" height="50" relative="1" as="geometry">
                        <mxPoint x="140" y="230" as="sourcePoint"/>
                        <mxPoint x="190" y="180" as="targetPoint"/>
                    </mxGeometry>
                </mxCell>
                <mxCell id="540" value="" style="endArrow=none;html=1;rounded=0;exitX=0.12;exitY=0.003;exitDx=0;exitDy=0;exitPerimeter=0;entryX=1;entryY=1;entryDx=0;entryDy=0;strokeColor=#999999;" parent="508" source="515" target="533" edge="1">
                    <mxGeometry width="50" height="50" relative="1" as="geometry">
                        <mxPoint x="240" y="200" as="sourcePoint"/>
                        <mxPoint x="290" y="150" as="targetPoint"/>
                    </mxGeometry>
                </mxCell>
                <mxCell id="541" value="" style="endArrow=none;html=1;rounded=0;exitX=0.599;exitY=0.992;exitDx=0;exitDy=0;exitPerimeter=0;entryX=1;entryY=0;entryDx=0;entryDy=0;strokeColor=#999999;" parent="508" source="533" target="527" edge="1">
                    <mxGeometry width="50" height="50" relative="1" as="geometry">
                        <mxPoint x="270" y="260" as="sourcePoint"/>
                        <mxPoint x="320" y="210" as="targetPoint"/>
                    </mxGeometry>
                </mxCell>
                <mxCell id="542" value="port: cr 41000, raspi 61000" style="text;html=1;align=center;verticalAlign=middle;whiteSpace=wrap;rounded=0;" parent="507" vertex="1">
                    <mxGeometry x="160" y="30" width="260" height="30" as="geometry"/>
                </mxCell>
                <mxCell id="661" value="Flow Details" style="swimlane;whiteSpace=wrap;html=1;strokeColor=#999999;strokeWidth=3;swimlaneFillColor=default;movable=1;resizable=1;rotatable=1;deletable=1;editable=1;locked=0;connectable=1;startSize=23;" vertex="1" collapsed="1" parent="1">
                    <mxGeometry x="-1040" y="740" width="140" height="30" as="geometry">
                        <mxRectangle x="-1500" y="685" width="240" height="105" as="alternateBounds"/>
                    </mxGeometry>
                </mxCell>
                <mxCell id="696" value="&lt;b&gt;１．Turn on the power of Master Robot&lt;/b&gt;&lt;div&gt;&lt;b&gt;２．　Push the &quot;Direction&quot;&lt;/b&gt;&lt;/div&gt;&lt;div&gt;&lt;b&gt;３．Turn on the power of Copy Robot&lt;/b&gt;&lt;/div&gt;" style="text;html=1;align=left;verticalAlign=middle;whiteSpace=wrap;rounded=0;" vertex="1" parent="661">
                    <mxGeometry y="30" width="260" height="70" as="geometry"/>
                </mxCell>
                <mxCell id="702" value="Command" style="swimlane;whiteSpace=wrap;html=1;strokeColor=#999999;strokeWidth=3;swimlaneFillColor=default;movable=1;resizable=1;rotatable=1;deletable=1;editable=1;locked=0;connectable=1;startSize=23;" vertex="1" collapsed="1" parent="1">
                    <mxGeometry x="-1040" y="1610" width="140" height="30" as="geometry">
                        <mxRectangle x="-1460" y="1550" width="260" height="135" as="alternateBounds"/>
                    </mxGeometry>
                </mxCell>
                <mxCell id="703" value="&lt;div style=&quot;&quot;&gt;&lt;span style=&quot;background-color: transparent;&quot;&gt;cd source_code/raspberrypi_gps&lt;/span&gt;&lt;/div&gt;&lt;div style=&quot;&quot;&gt;sudo ./forcecontrol&lt;/div&gt;&lt;div style=&quot;text-align: center;&quot;&gt;&lt;b&gt;&lt;br&gt;&lt;/b&gt;&lt;/div&gt;&lt;div&gt;&lt;div&gt;&lt;b&gt;Initially, to check for incoming, we use&amp;nbsp;&lt;/b&gt;&lt;/div&gt;&lt;div style=&quot;&quot;&gt;sudo . /firstcheck&amp;nbsp;&lt;/div&gt;&lt;div&gt;&lt;b&gt;to perform an initial incoming check&lt;/b&gt;&lt;/div&gt;&lt;/div&gt;" style="text;html=1;align=left;verticalAlign=middle;whiteSpace=wrap;rounded=0;" vertex="1" parent="702">
                    <mxGeometry x="10" y="30" width="240" height="100" as="geometry"/>
                </mxCell>
                <mxCell id="472" value="Connect SSH" style="swimlane;whiteSpace=wrap;html=1;strokeColor=#999999;strokeWidth=3;swimlaneFillColor=default;movable=1;resizable=1;rotatable=1;deletable=1;editable=1;locked=0;connectable=1;" parent="1" vertex="1" collapsed="1">
                    <mxGeometry x="-1040" y="1300" width="140" height="30" as="geometry">
                        <mxRectangle x="-1530" y="1540" width="380" height="360" as="alternateBounds"/>
                    </mxGeometry>
                </mxCell>
                <mxCell id="473" value="" style="childLayout=tableLayout;recursiveResize=0;shadow=0;fillColor=none;strokeColor=#999999;strokeWidth=2;" parent="472" vertex="1">
                    <mxGeometry x="15" y="30" width="350" height="310" as="geometry"/>
                </mxCell>
                <mxCell id="474" value="" style="shape=tableRow;horizontal=0;startSize=0;swimlaneHead=0;swimlaneBody=0;top=0;left=0;bottom=0;right=0;dropTarget=0;collapsible=0;recursiveResize=0;expand=0;fontStyle=0;fillColor=none;strokeColor=inherit;" parent="473" vertex="1">
                    <mxGeometry width="350" height="30" as="geometry"/>
                </mxCell>
                <mxCell id="475" style="connectable=0;recursiveResize=0;strokeColor=inherit;fillColor=none;align=center;whiteSpace=wrap;html=1;" parent="474" vertex="1">
                    <mxGeometry width="70" height="30" as="geometry">
                        <mxRectangle width="70" height="30" as="alternateBounds"/>
                    </mxGeometry>
                </mxCell>
                <mxCell id="476" value="Location A" style="connectable=0;recursiveResize=0;strokeColor=inherit;fillColor=none;align=center;whiteSpace=wrap;html=1;" parent="474" vertex="1">
                    <mxGeometry x="70" width="70" height="30" as="geometry">
                        <mxRectangle width="70" height="30" as="alternateBounds"/>
                    </mxGeometry>
                </mxCell>
                <mxCell id="477" value="Location B" style="connectable=0;recursiveResize=0;strokeColor=inherit;fillColor=none;align=center;whiteSpace=wrap;html=1;" parent="474" vertex="1">
                    <mxGeometry x="140" width="70" height="30" as="geometry">
                        <mxRectangle width="70" height="30" as="alternateBounds"/>
                    </mxGeometry>
                </mxCell>
                <mxCell id="478" value="Location C" style="connectable=0;recursiveResize=0;strokeColor=inherit;fillColor=none;align=center;whiteSpace=wrap;html=1;" parent="474" vertex="1">
                    <mxGeometry x="210" width="70" height="30" as="geometry">
                        <mxRectangle width="70" height="30" as="alternateBounds"/>
                    </mxGeometry>
                </mxCell>
                <mxCell id="479" value="Location D" style="connectable=0;recursiveResize=0;strokeColor=inherit;fillColor=none;align=center;whiteSpace=wrap;html=1;" parent="474" vertex="1">
                    <mxGeometry x="280" width="70" height="30" as="geometry">
                        <mxRectangle width="70" height="30" as="alternateBounds"/>
                    </mxGeometry>
                </mxCell>
                <mxCell id="480" style="shape=tableRow;horizontal=0;startSize=0;swimlaneHead=0;swimlaneBody=0;top=0;left=0;bottom=0;right=0;dropTarget=0;collapsible=0;recursiveResize=0;expand=0;fontStyle=0;fillColor=none;strokeColor=#999999;" parent="473" vertex="1">
                    <mxGeometry y="30" width="350" height="70" as="geometry"/>
                </mxCell>
                <mxCell id="481" value="Location A" style="connectable=0;recursiveResize=0;strokeColor=inherit;fillColor=none;align=center;whiteSpace=wrap;html=1;" parent="480" vertex="1">
                    <mxGeometry width="70" height="70" as="geometry">
                        <mxRectangle width="70" height="70" as="alternateBounds"/>
                    </mxGeometry>
                </mxCell>
                <mxCell id="482" value="" style="connectable=0;recursiveResize=0;strokeColor=inherit;fillColor=none;align=center;whiteSpace=wrap;html=1;" parent="480" vertex="1">
                    <mxGeometry x="70" width="70" height="70" as="geometry">
                        <mxRectangle width="70" height="70" as="alternateBounds"/>
                    </mxGeometry>
                </mxCell>
                <mxCell id="483" value="raspi-b&lt;br&gt;raspi-a&lt;br&gt;cra1&lt;br&gt;crb1" style="connectable=0;recursiveResize=0;strokeColor=inherit;fillColor=none;align=center;whiteSpace=wrap;html=1;" parent="480" vertex="1">
                    <mxGeometry x="140" width="70" height="70" as="geometry">
                        <mxRectangle width="70" height="70" as="alternateBounds"/>
                    </mxGeometry>
                </mxCell>
                <mxCell id="484" value="raspi-c&lt;br&gt;raspi-a&lt;br&gt;cra2&lt;br&gt;crc1" style="connectable=0;recursiveResize=0;strokeColor=inherit;fillColor=none;align=center;whiteSpace=wrap;html=1;" parent="480" vertex="1">
                    <mxGeometry x="210" width="70" height="70" as="geometry">
                        <mxRectangle width="70" height="70" as="alternateBounds"/>
                    </mxGeometry>
                </mxCell>
                <mxCell id="485" value="raspi-d&lt;br&gt;raspi-a&lt;br&gt;cra3&lt;br&gt;crc1" style="connectable=0;recursiveResize=0;strokeColor=inherit;fillColor=none;align=center;whiteSpace=wrap;html=1;" parent="480" vertex="1">
                    <mxGeometry x="280" width="70" height="70" as="geometry">
                        <mxRectangle width="70" height="70" as="alternateBounds"/>
                    </mxGeometry>
                </mxCell>
                <mxCell id="486" style="shape=tableRow;horizontal=0;startSize=0;swimlaneHead=0;swimlaneBody=0;top=0;left=0;bottom=0;right=0;dropTarget=0;collapsible=0;recursiveResize=0;expand=0;fontStyle=0;fillColor=none;strokeColor=inherit;" parent="473" vertex="1">
                    <mxGeometry y="100" width="350" height="70" as="geometry"/>
                </mxCell>
                <mxCell id="487" value="Location B" style="connectable=0;recursiveResize=0;strokeColor=inherit;fillColor=none;align=center;whiteSpace=wrap;html=1;" parent="486" vertex="1">
                    <mxGeometry width="70" height="70" as="geometry">
                        <mxRectangle width="70" height="70" as="alternateBounds"/>
                    </mxGeometry>
                </mxCell>
                <mxCell id="488" value="raspi-a&lt;br&gt;raspi-b&lt;br&gt;crb1&lt;br&gt;cra1" style="connectable=0;recursiveResize=0;strokeColor=inherit;fillColor=none;align=center;whiteSpace=wrap;html=1;" parent="486" vertex="1">
                    <mxGeometry x="70" width="70" height="70" as="geometry">
                        <mxRectangle width="70" height="70" as="alternateBounds"/>
                    </mxGeometry>
                </mxCell>
                <mxCell id="489" value="" style="connectable=0;recursiveResize=0;strokeColor=inherit;fillColor=none;align=center;whiteSpace=wrap;html=1;" parent="486" vertex="1">
                    <mxGeometry x="140" width="70" height="70" as="geometry">
                        <mxRectangle width="70" height="70" as="alternateBounds"/>
                    </mxGeometry>
                </mxCell>
                <mxCell id="490" value="raspi-c&lt;br&gt;raspi-b&lt;br&gt;crb2&lt;br&gt;crc2" style="connectable=0;recursiveResize=0;strokeColor=inherit;fillColor=none;align=center;whiteSpace=wrap;html=1;" parent="486" vertex="1">
                    <mxGeometry x="210" width="70" height="70" as="geometry">
                        <mxRectangle width="70" height="70" as="alternateBounds"/>
                    </mxGeometry>
                </mxCell>
                <mxCell id="491" value="raspi-d&lt;br&gt;raspi-b&lt;br&gt;crb3&lt;br&gt;crc2" style="connectable=0;recursiveResize=0;strokeColor=inherit;fillColor=none;align=center;whiteSpace=wrap;html=1;" parent="486" vertex="1">
                    <mxGeometry x="280" width="70" height="70" as="geometry">
                        <mxRectangle width="70" height="70" as="alternateBounds"/>
                    </mxGeometry>
                </mxCell>
                <mxCell id="492" style="shape=tableRow;horizontal=0;startSize=0;swimlaneHead=0;swimlaneBody=0;top=0;left=0;bottom=0;right=0;dropTarget=0;collapsible=0;recursiveResize=0;expand=0;fontStyle=0;fillColor=none;strokeColor=inherit;" parent="473" vertex="1">
                    <mxGeometry y="170" width="350" height="70" as="geometry"/>
                </mxCell>
                <mxCell id="493" value="Location C" style="connectable=0;recursiveResize=0;strokeColor=inherit;fillColor=none;align=center;whiteSpace=wrap;html=1;" parent="492" vertex="1">
                    <mxGeometry width="70" height="70" as="geometry">
                        <mxRectangle width="70" height="70" as="alternateBounds"/>
                    </mxGeometry>
                </mxCell>
                <mxCell id="494" value="raspi-a&lt;br&gt;raspi-c&lt;br&gt;crc1&lt;br&gt;cra2" style="connectable=0;recursiveResize=0;strokeColor=inherit;fillColor=none;align=center;whiteSpace=wrap;html=1;" parent="492" vertex="1">
                    <mxGeometry x="70" width="70" height="70" as="geometry">
                        <mxRectangle width="70" height="70" as="alternateBounds"/>
                    </mxGeometry>
                </mxCell>
                <mxCell id="495" value="raspi-b&lt;br&gt;raspi-c&lt;br&gt;crc2&lt;br&gt;crb2" style="connectable=0;recursiveResize=0;strokeColor=inherit;fillColor=none;align=center;whiteSpace=wrap;html=1;" parent="492" vertex="1">
                    <mxGeometry x="140" width="70" height="70" as="geometry">
                        <mxRectangle width="70" height="70" as="alternateBounds"/>
                    </mxGeometry>
                </mxCell>
                <mxCell id="496" style="connectable=0;recursiveResize=0;strokeColor=inherit;fillColor=none;align=center;whiteSpace=wrap;html=1;" parent="492" vertex="1">
                    <mxGeometry x="210" width="70" height="70" as="geometry">
                        <mxRectangle width="70" height="70" as="alternateBounds"/>
                    </mxGeometry>
                </mxCell>
                <mxCell id="497" style="connectable=0;recursiveResize=0;strokeColor=inherit;fillColor=none;align=center;whiteSpace=wrap;html=1;" parent="492" vertex="1">
                    <mxGeometry x="280" width="70" height="70" as="geometry">
                        <mxRectangle width="70" height="70" as="alternateBounds"/>
                    </mxGeometry>
                </mxCell>
                <mxCell id="498" style="shape=tableRow;horizontal=0;startSize=0;swimlaneHead=0;swimlaneBody=0;top=0;left=0;bottom=0;right=0;dropTarget=0;collapsible=0;recursiveResize=0;expand=0;fontStyle=0;fillColor=none;strokeColor=inherit;" parent="473" vertex="1">
                    <mxGeometry y="240" width="350" height="70" as="geometry"/>
                </mxCell>
                <mxCell id="499" value="&lt;span style=&quot;color: rgb(0, 0, 0); font-family: Helvetica; font-size: 12px; font-style: normal; font-variant-ligatures: normal; font-variant-caps: normal; font-weight: 400; letter-spacing: normal; orphans: 2; text-align: center; text-indent: 0px; text-transform: none; widows: 2; word-spacing: 0px; -webkit-text-stroke-width: 0px; white-space: normal; background-color: rgb(236, 236, 236); text-decoration-thickness: initial; text-decoration-style: initial; text-decoration-color: initial; float: none; display: inline !important;&quot;&gt;Location D&lt;/span&gt;" style="connectable=0;recursiveResize=0;strokeColor=inherit;fillColor=none;align=center;whiteSpace=wrap;html=1;" parent="498" vertex="1">
                    <mxGeometry width="70" height="70" as="geometry">
                        <mxRectangle width="70" height="70" as="alternateBounds"/>
                    </mxGeometry>
                </mxCell>
                <mxCell id="500" value="raspi-a&lt;br&gt;raspi-d&lt;br&gt;crc1&lt;br&gt;cra3" style="connectable=0;recursiveResize=0;strokeColor=inherit;fillColor=none;align=center;whiteSpace=wrap;html=1;" parent="498" vertex="1">
                    <mxGeometry x="70" width="70" height="70" as="geometry">
                        <mxRectangle width="70" height="70" as="alternateBounds"/>
                    </mxGeometry>
                </mxCell>
                <mxCell id="501" value="raspi-b&lt;br&gt;raspi-d&lt;br&gt;crc2&lt;br&gt;crb3" style="connectable=0;recursiveResize=0;strokeColor=inherit;fillColor=none;align=center;whiteSpace=wrap;html=1;" parent="498" vertex="1">
                    <mxGeometry x="140" width="70" height="70" as="geometry">
                        <mxRectangle width="70" height="70" as="alternateBounds"/>
                    </mxGeometry>
                </mxCell>
                <mxCell id="502" style="connectable=0;recursiveResize=0;strokeColor=inherit;fillColor=none;align=center;whiteSpace=wrap;html=1;" parent="498" vertex="1">
                    <mxGeometry x="210" width="70" height="70" as="geometry">
                        <mxRectangle width="70" height="70" as="alternateBounds"/>
                    </mxGeometry>
                </mxCell>
                <mxCell id="503" style="connectable=0;recursiveResize=0;strokeColor=inherit;fillColor=none;align=center;whiteSpace=wrap;html=1;" parent="498" vertex="1">
                    <mxGeometry x="280" width="70" height="70" as="geometry">
                        <mxRectangle width="70" height="70" as="alternateBounds"/>
                    </mxGeometry>
                </mxCell>
                <mxCell id="504" value="" style="endArrow=none;html=1;rounded=0;exitX=0;exitY=0;exitDx=0;exitDy=0;entryX=0.199;entryY=0.978;entryDx=0;entryDy=0;entryPerimeter=0;strokeColor=#999999;" parent="473" source="474" target="474" edge="1">
                    <mxGeometry width="50" height="50" relative="1" as="geometry">
                        <mxPoint x="140" y="230" as="sourcePoint"/>
                        <mxPoint x="190" y="180" as="targetPoint"/>
                    </mxGeometry>
                </mxCell>
                <mxCell id="505" value="" style="endArrow=none;html=1;rounded=0;exitX=0.199;exitY=-0.003;exitDx=0;exitDy=0;exitPerimeter=0;entryX=1;entryY=1;entryDx=0;entryDy=0;strokeColor=#999999;" parent="473" source="480" target="498" edge="1">
                    <mxGeometry width="50" height="50" relative="1" as="geometry">
                        <mxPoint x="240" y="200" as="sourcePoint"/>
                        <mxPoint x="290" y="150" as="targetPoint"/>
                    </mxGeometry>
                </mxCell>
                <mxCell id="506" value="" style="endArrow=none;html=1;rounded=0;exitX=0.599;exitY=0.992;exitDx=0;exitDy=0;exitPerimeter=0;entryX=1;entryY=0;entryDx=0;entryDy=0;strokeColor=#999999;" parent="473" source="498" target="492" edge="1">
                    <mxGeometry width="50" height="50" relative="1" as="geometry">
                        <mxPoint x="270" y="260" as="sourcePoint"/>
                        <mxPoint x="320" y="210" as="targetPoint"/>
                    </mxGeometry>
                </mxCell>
                <mxCell id="704" value="Command" style="swimlane;whiteSpace=wrap;html=1;strokeColor=#999999;strokeWidth=3;swimlaneFillColor=default;movable=1;resizable=1;rotatable=1;deletable=1;editable=1;locked=0;connectable=1;startSize=23;" vertex="1" collapsed="1" parent="1">
                    <mxGeometry x="-1040" y="1241" width="140" height="30" as="geometry">
                        <mxRectangle x="-1670" y="1220" width="330" height="150" as="alternateBounds"/>
                    </mxGeometry>
                </mxCell>
                <mxCell id="705" value="&lt;div style=&quot;&quot;&gt;&lt;span style=&quot;background-color: transparent;&quot;&gt;cd source_code/raspberrypi_gps&lt;/span&gt;&lt;/div&gt;&lt;div style=&quot;&quot;&gt;sudo ./run &quot;crb IP&quot; &quot;MonitoringPC IP&quot; &quot;&lt;span style=&quot;color: rgb(63, 63, 63); background-color: transparent;&quot;&gt;MonitoringPC Port&lt;/span&gt;&lt;span style=&quot;background-color: transparent;&quot;&gt;&quot;&lt;/span&gt;&lt;/div&gt;" style="text;html=1;align=left;verticalAlign=middle;whiteSpace=wrap;rounded=0;" vertex="1" parent="704">
                    <mxGeometry x="10" y="30" width="320" height="50" as="geometry"/>
                </mxCell>
                <mxCell id="706" value="&lt;div style=&quot;&quot;&gt;&lt;span style=&quot;color: rgb(63, 63, 63);&quot;&gt;MonitoringPC Port&lt;/span&gt;&lt;/div&gt;&lt;div style=&quot;&quot;&gt;raspi-a: 52222&lt;/div&gt;&lt;div style=&quot;&quot;&gt;raspi-b: 53222&lt;/div&gt;" style="text;html=1;align=left;verticalAlign=middle;whiteSpace=wrap;rounded=0;" vertex="1" parent="704">
                    <mxGeometry x="10" y="90" width="310" height="50" as="geometry"/>
                </mxCell>
                <mxCell id="707" value="Connect UDP" style="swimlane;whiteSpace=wrap;html=1;strokeColor=#999999;strokeWidth=3;swimlaneFillColor=default;movable=1;resizable=1;rotatable=1;deletable=1;editable=1;locked=0;connectable=1;" vertex="1" collapsed="1" parent="1">
                    <mxGeometry x="220" y="1510" width="140" height="30" as="geometry">
                        <mxRectangle x="490" y="-10" width="610" height="390" as="alternateBounds"/>
                    </mxGeometry>
                </mxCell>
                <mxCell id="708" value="" style="childLayout=tableLayout;recursiveResize=0;shadow=0;fillColor=none;strokeColor=#999999;strokeWidth=2;" vertex="1" parent="707">
                    <mxGeometry x="10" y="70" width="590" height="310" as="geometry"/>
                </mxCell>
                <mxCell id="709" value="" style="shape=tableRow;horizontal=0;startSize=0;swimlaneHead=0;swimlaneBody=0;top=0;left=0;bottom=0;right=0;dropTarget=0;collapsible=0;recursiveResize=0;expand=0;fontStyle=0;fillColor=none;strokeColor=inherit;" vertex="1" parent="708">
                    <mxGeometry width="590" height="30" as="geometry"/>
                </mxCell>
                <mxCell id="710" style="connectable=0;recursiveResize=0;strokeColor=inherit;fillColor=none;align=center;whiteSpace=wrap;html=1;" vertex="1" parent="709">
                    <mxGeometry width="70" height="30" as="geometry">
                        <mxRectangle width="70" height="30" as="alternateBounds"/>
                    </mxGeometry>
                </mxCell>
                <mxCell id="711" value="Location A" style="connectable=0;recursiveResize=0;strokeColor=inherit;fillColor=none;align=center;whiteSpace=wrap;html=1;" vertex="1" parent="709">
                    <mxGeometry x="70" width="130" height="30" as="geometry">
                        <mxRectangle width="130" height="30" as="alternateBounds"/>
                    </mxGeometry>
                </mxCell>
                <mxCell id="712" value="Location B" style="connectable=0;recursiveResize=0;strokeColor=inherit;fillColor=none;align=center;whiteSpace=wrap;html=1;" vertex="1" parent="709">
                    <mxGeometry x="200" width="130" height="30" as="geometry">
                        <mxRectangle width="130" height="30" as="alternateBounds"/>
                    </mxGeometry>
                </mxCell>
                <mxCell id="713" value="Location C" style="connectable=0;recursiveResize=0;strokeColor=inherit;fillColor=none;align=center;whiteSpace=wrap;html=1;" vertex="1" parent="709">
                    <mxGeometry x="330" width="130" height="30" as="geometry">
                        <mxRectangle width="130" height="30" as="alternateBounds"/>
                    </mxGeometry>
                </mxCell>
                <mxCell id="714" value="Location D" style="connectable=0;recursiveResize=0;strokeColor=inherit;fillColor=none;align=center;whiteSpace=wrap;html=1;" vertex="1" parent="709">
                    <mxGeometry x="460" width="130" height="30" as="geometry">
                        <mxRectangle width="130" height="30" as="alternateBounds"/>
                    </mxGeometry>
                </mxCell>
                <mxCell id="715" style="shape=tableRow;horizontal=0;startSize=0;swimlaneHead=0;swimlaneBody=0;top=0;left=0;bottom=0;right=0;dropTarget=0;collapsible=0;recursiveResize=0;expand=0;fontStyle=0;fillColor=none;strokeColor=#999999;" vertex="1" parent="708">
                    <mxGeometry y="30" width="590" height="70" as="geometry"/>
                </mxCell>
                <mxCell id="716" value="Location A" style="connectable=0;recursiveResize=0;strokeColor=inherit;fillColor=none;align=center;whiteSpace=wrap;html=1;" vertex="1" parent="715">
                    <mxGeometry width="70" height="70" as="geometry">
                        <mxRectangle width="70" height="70" as="alternateBounds"/>
                    </mxGeometry>
                </mxCell>
                <mxCell id="717" value="" style="connectable=0;recursiveResize=0;strokeColor=inherit;fillColor=none;align=center;whiteSpace=wrap;html=1;" vertex="1" parent="715">
                    <mxGeometry x="70" width="130" height="70" as="geometry">
                        <mxRectangle width="130" height="70" as="alternateBounds"/>
                    </mxGeometry>
                </mxCell>
                <mxCell id="718" value="crb1:100.77.38.21" style="connectable=0;recursiveResize=0;strokeColor=inherit;fillColor=none;align=center;whiteSpace=wrap;html=1;" vertex="1" parent="715">
                    <mxGeometry x="200" width="130" height="70" as="geometry">
                        <mxRectangle width="130" height="70" as="alternateBounds"/>
                    </mxGeometry>
                </mxCell>
                <mxCell id="719" value="crc1:100.77.38.31" style="connectable=0;recursiveResize=0;strokeColor=inherit;fillColor=none;align=center;whiteSpace=wrap;html=1;" vertex="1" parent="715">
                    <mxGeometry x="330" width="130" height="70" as="geometry">
                        <mxRectangle width="130" height="70" as="alternateBounds"/>
                    </mxGeometry>
                </mxCell>
                <mxCell id="720" value="crc1:100.77.38.31" style="connectable=0;recursiveResize=0;strokeColor=inherit;fillColor=none;align=center;whiteSpace=wrap;html=1;" vertex="1" parent="715">
                    <mxGeometry x="460" width="130" height="70" as="geometry">
                        <mxRectangle width="130" height="70" as="alternateBounds"/>
                    </mxGeometry>
                </mxCell>
                <mxCell id="721" style="shape=tableRow;horizontal=0;startSize=0;swimlaneHead=0;swimlaneBody=0;top=0;left=0;bottom=0;right=0;dropTarget=0;collapsible=0;recursiveResize=0;expand=0;fontStyle=0;fillColor=none;strokeColor=inherit;" vertex="1" parent="708">
                    <mxGeometry y="100" width="590" height="70" as="geometry"/>
                </mxCell>
                <mxCell id="722" value="Location B" style="connectable=0;recursiveResize=0;strokeColor=inherit;fillColor=none;align=center;whiteSpace=wrap;html=1;" vertex="1" parent="721">
                    <mxGeometry width="70" height="70" as="geometry">
                        <mxRectangle width="70" height="70" as="alternateBounds"/>
                    </mxGeometry>
                </mxCell>
                <mxCell id="723" value="cra1:100.77.38.11" style="connectable=0;recursiveResize=0;strokeColor=inherit;fillColor=none;align=center;whiteSpace=wrap;html=1;" vertex="1" parent="721">
                    <mxGeometry x="70" width="130" height="70" as="geometry">
                        <mxRectangle width="130" height="70" as="alternateBounds"/>
                    </mxGeometry>
                </mxCell>
                <mxCell id="724" value="" style="connectable=0;recursiveResize=0;strokeColor=inherit;fillColor=none;align=center;whiteSpace=wrap;html=1;" vertex="1" parent="721">
                    <mxGeometry x="200" width="130" height="70" as="geometry">
                        <mxRectangle width="130" height="70" as="alternateBounds"/>
                    </mxGeometry>
                </mxCell>
                <mxCell id="725" value="crc2:100.77.38.32" style="connectable=0;recursiveResize=0;strokeColor=inherit;fillColor=none;align=center;whiteSpace=wrap;html=1;" vertex="1" parent="721">
                    <mxGeometry x="330" width="130" height="70" as="geometry">
                        <mxRectangle width="130" height="70" as="alternateBounds"/>
                    </mxGeometry>
                </mxCell>
                <mxCell id="726" value="crc2:100.77.38.32" style="connectable=0;recursiveResize=0;strokeColor=inherit;fillColor=none;align=center;whiteSpace=wrap;html=1;" vertex="1" parent="721">
                    <mxGeometry x="460" width="130" height="70" as="geometry">
                        <mxRectangle width="130" height="70" as="alternateBounds"/>
                    </mxGeometry>
                </mxCell>
                <mxCell id="727" style="shape=tableRow;horizontal=0;startSize=0;swimlaneHead=0;swimlaneBody=0;top=0;left=0;bottom=0;right=0;dropTarget=0;collapsible=0;recursiveResize=0;expand=0;fontStyle=0;fillColor=none;strokeColor=inherit;" vertex="1" parent="708">
                    <mxGeometry y="170" width="590" height="70" as="geometry"/>
                </mxCell>
                <mxCell id="728" value="Location C" style="connectable=0;recursiveResize=0;strokeColor=inherit;fillColor=none;align=center;whiteSpace=wrap;html=1;" vertex="1" parent="727">
                    <mxGeometry width="70" height="70" as="geometry">
                        <mxRectangle width="70" height="70" as="alternateBounds"/>
                    </mxGeometry>
                </mxCell>
                <mxCell id="729" value="cra2:100.77.38.12" style="connectable=0;recursiveResize=0;strokeColor=inherit;fillColor=none;align=center;whiteSpace=wrap;html=1;" vertex="1" parent="727">
                    <mxGeometry x="70" width="130" height="70" as="geometry">
                        <mxRectangle width="130" height="70" as="alternateBounds"/>
                    </mxGeometry>
                </mxCell>
                <mxCell id="730" value="&lt;div&gt;crb2:100.77.38.22&lt;/div&gt;" style="connectable=0;recursiveResize=0;strokeColor=inherit;fillColor=none;align=center;whiteSpace=wrap;html=1;" vertex="1" parent="727">
                    <mxGeometry x="200" width="130" height="70" as="geometry">
                        <mxRectangle width="130" height="70" as="alternateBounds"/>
                    </mxGeometry>
                </mxCell>
                <mxCell id="731" style="connectable=0;recursiveResize=0;strokeColor=inherit;fillColor=none;align=center;whiteSpace=wrap;html=1;" vertex="1" parent="727">
                    <mxGeometry x="330" width="130" height="70" as="geometry">
                        <mxRectangle width="130" height="70" as="alternateBounds"/>
                    </mxGeometry>
                </mxCell>
                <mxCell id="732" style="connectable=0;recursiveResize=0;strokeColor=inherit;fillColor=none;align=center;whiteSpace=wrap;html=1;" vertex="1" parent="727">
                    <mxGeometry x="460" width="130" height="70" as="geometry">
                        <mxRectangle width="130" height="70" as="alternateBounds"/>
                    </mxGeometry>
                </mxCell>
                <mxCell id="733" style="shape=tableRow;horizontal=0;startSize=0;swimlaneHead=0;swimlaneBody=0;top=0;left=0;bottom=0;right=0;dropTarget=0;collapsible=0;recursiveResize=0;expand=0;fontStyle=0;fillColor=none;strokeColor=inherit;" vertex="1" parent="708">
                    <mxGeometry y="240" width="590" height="70" as="geometry"/>
                </mxCell>
                <mxCell id="734" value="&lt;span style=&quot;color: rgb(0, 0, 0); font-family: Helvetica; font-size: 12px; font-style: normal; font-variant-ligatures: normal; font-variant-caps: normal; font-weight: 400; letter-spacing: normal; orphans: 2; text-align: center; text-indent: 0px; text-transform: none; widows: 2; word-spacing: 0px; -webkit-text-stroke-width: 0px; white-space: normal; background-color: rgb(236, 236, 236); text-decoration-thickness: initial; text-decoration-style: initial; text-decoration-color: initial; float: none; display: inline !important;&quot;&gt;Location D&lt;/span&gt;" style="connectable=0;recursiveResize=0;strokeColor=inherit;fillColor=none;align=center;whiteSpace=wrap;html=1;" vertex="1" parent="733">
                    <mxGeometry width="70" height="70" as="geometry">
                        <mxRectangle width="70" height="70" as="alternateBounds"/>
                    </mxGeometry>
                </mxCell>
                <mxCell id="735" value="cra3:100.77.38.13" style="connectable=0;recursiveResize=0;strokeColor=inherit;fillColor=none;align=center;whiteSpace=wrap;html=1;" vertex="1" parent="733">
                    <mxGeometry x="70" width="130" height="70" as="geometry">
                        <mxRectangle width="130" height="70" as="alternateBounds"/>
                    </mxGeometry>
                </mxCell>
                <mxCell id="736" value="crb3:100.77.38.23" style="connectable=0;recursiveResize=0;strokeColor=inherit;fillColor=none;align=center;whiteSpace=wrap;html=1;" vertex="1" parent="733">
                    <mxGeometry x="200" width="130" height="70" as="geometry">
                        <mxRectangle width="130" height="70" as="alternateBounds"/>
                    </mxGeometry>
                </mxCell>
                <mxCell id="737" style="connectable=0;recursiveResize=0;strokeColor=inherit;fillColor=none;align=center;whiteSpace=wrap;html=1;" vertex="1" parent="733">
                    <mxGeometry x="330" width="130" height="70" as="geometry">
                        <mxRectangle width="130" height="70" as="alternateBounds"/>
                    </mxGeometry>
                </mxCell>
                <mxCell id="738" style="connectable=0;recursiveResize=0;strokeColor=inherit;fillColor=none;align=center;whiteSpace=wrap;html=1;" vertex="1" parent="733">
                    <mxGeometry x="460" width="130" height="70" as="geometry">
                        <mxRectangle width="130" height="70" as="alternateBounds"/>
                    </mxGeometry>
                </mxCell>
                <mxCell id="739" value="" style="endArrow=none;html=1;rounded=0;exitX=0;exitY=0;exitDx=0;exitDy=0;entryX=0.118;entryY=-0.003;entryDx=0;entryDy=0;entryPerimeter=0;strokeColor=#999999;" edge="1" parent="708" source="709" target="715">
                    <mxGeometry width="50" height="50" relative="1" as="geometry">
                        <mxPoint x="140" y="230" as="sourcePoint"/>
                        <mxPoint x="190" y="180" as="targetPoint"/>
                    </mxGeometry>
                </mxCell>
                <mxCell id="740" value="" style="endArrow=none;html=1;rounded=0;exitX=0.12;exitY=0.003;exitDx=0;exitDy=0;exitPerimeter=0;entryX=1;entryY=1;entryDx=0;entryDy=0;strokeColor=#999999;" edge="1" parent="708" source="715" target="733">
                    <mxGeometry width="50" height="50" relative="1" as="geometry">
                        <mxPoint x="240" y="200" as="sourcePoint"/>
                        <mxPoint x="290" y="150" as="targetPoint"/>
                    </mxGeometry>
                </mxCell>
                <mxCell id="741" value="" style="endArrow=none;html=1;rounded=0;exitX=0.599;exitY=0.992;exitDx=0;exitDy=0;exitPerimeter=0;entryX=1;entryY=0;entryDx=0;entryDy=0;strokeColor=#999999;" edge="1" parent="708" source="733" target="727">
                    <mxGeometry width="50" height="50" relative="1" as="geometry">
                        <mxPoint x="270" y="260" as="sourcePoint"/>
                        <mxPoint x="320" y="210" as="targetPoint"/>
                    </mxGeometry>
                </mxCell>
                <mxCell id="742" value="port: cr 40000" style="text;html=1;align=center;verticalAlign=middle;whiteSpace=wrap;rounded=0;" vertex="1" parent="707">
                    <mxGeometry x="20" y="30" width="260" height="30" as="geometry"/>
                </mxCell>
                <mxCell id="743" value="IIPC:port 5000 or 51000 ip getip" style="text;html=1;align=center;verticalAlign=middle;whiteSpace=wrap;rounded=0;" vertex="1" parent="707">
                    <mxGeometry x="320" y="30" width="260" height="30" as="geometry"/>
                </mxCell>
                <mxCell id="747" value="Save Directory" style="swimlane;whiteSpace=wrap;html=1;strokeColor=#999999;strokeWidth=3;swimlaneFillColor=default;movable=1;resizable=1;rotatable=1;deletable=1;editable=1;locked=0;connectable=1;startSize=23;" vertex="1" collapsed="1" parent="1">
                    <mxGeometry x="-965" y="2590" width="140" height="30" as="geometry">
                        <mxRectangle x="-1450" y="1850" width="260" height="100" as="alternateBounds"/>
                    </mxGeometry>
                </mxCell>
                <mxCell id="748" value="&lt;div style=&quot;&quot;&gt;File servers can be accessed from terminals connected to Tailscale&lt;/div&gt;&lt;div style=&quot;&quot;&gt;&lt;br&gt;&lt;/div&gt;&lt;div style=&quot;&quot;&gt;\\100.124.38.52\shared_csv&lt;/div&gt;&lt;div style=&quot;&quot;&gt;&lt;br&gt;&lt;/div&gt;" style="text;html=1;align=left;verticalAlign=middle;whiteSpace=wrap;rounded=0;" vertex="1" parent="747">
                    <mxGeometry x="10" y="30" width="240" height="70" as="geometry"/>
                </mxCell>
                <mxCell id="248" value="Port&amp;nbsp;" style="swimlane;whiteSpace=wrap;html=1;swimlaneFillColor=#FFFFFF;movable=1;resizable=1;rotatable=1;deletable=1;editable=1;locked=0;connectable=1;" parent="1" vertex="1" collapsed="1">
                    <mxGeometry x="-970" y="460" width="70" height="30" as="geometry">
                        <mxRectangle x="-970" y="460" width="180" height="95" as="alternateBounds"/>
                    </mxGeometry>
                </mxCell>
                <mxCell id="249" value="The default settings are:&amp;nbsp;&lt;div&gt;Location A uses port 50222&lt;/div&gt;&lt;div&gt;Location B uses port 51222&lt;/div&gt;" style="text;html=1;align=left;verticalAlign=middle;whiteSpace=wrap;rounded=0;" parent="248" vertex="1">
                    <mxGeometry x="20" y="30" width="230" height="50" as="geometry"/>
                </mxCell>
            </root>
        </mxGraphModel>
    </diagram>
</mxfile>